<?xml version="1.0" encoding="UTF-8" standalone="no"?>
<!DOCTYPE svg PUBLIC "-//W3C//DTD SVG 1.1//EN"
 "http://www.w3.org/Graphics/SVG/1.1/DTD/svg11.dtd">
<!-- Generated by graphviz version 2.47.3 (20210619.1520)
 -->
<!-- Title: FST Pages: 1 -->
<svg width="226pt" height="111pt"
 viewBox="0.00 0.00 226.00 111.00" xmlns="http://www.w3.org/2000/svg" xmlns:xlink="http://www.w3.org/1999/xlink">
<g id="graph0" class="graph" transform="scale(1 1) rotate(0) translate(4 110)">
<title>FST</title>
<polygon fill="white" stroke="transparent" points="-4,4 -4,-147 222,-147 222,4 -4,4"/>
<!-- 0 -->
<g id="node1" class="node">
<title>0</title>
<ellipse fill="none" stroke="black" stroke-width="2" cx="18" cy="-22" rx="18" ry="18"/>
<text text-anchor="middle" x="18" y="-18.3" font-family="Times,serif" font-size="14.00">0</text>
</g>
<!-- 0&#45;&gt;0 -->
<g id="edge2" class="edge">
<title>0&#45;&gt;0</title>
<path fill="none" stroke="black" d="M15.47,-40.15C15.08,-49.54 15.92,-58 18,-58 19.27,-58 20.07,-54.86 20.42,-50.28"/>
<polygon fill="black" stroke="black" points="23.93,-50.19 20.53,-40.15 16.93,-50.11 23.93,-50.19"/>
<text text-anchor="middle" x="18" y="-61.8" font-family="Times,serif" font-size="14.00">a</text>
</g>
<!-- 0&#45;&gt;0 -->
<g id="edge3" class="edge">
<title>0&#45;&gt;0</title>
<path fill="none" stroke="black" d="M13.83,-39.7C11.52,-57 12.91,-76 18,-76 22.09,-76 23.79,-63.69 23.1,-49.87"/>
<polygon fill="black" stroke="black" points="26.57,-49.34 22.17,-39.7 19.59,-49.98 26.57,-49.34"/>
<text text-anchor="middle" x="18" y="-79.8" font-family="Times,serif" font-size="14.00">b</text>
</g>
<!-- 0&#45;&gt;0 -->
<g id="edge4" class="edge">
<title>0&#45;&gt;0</title>
<path fill="none" stroke="black" d="M12.83,-39.35C7.95,-63.82 9.67,-94 18,-94 25.22,-94 27.48,-71.3 24.77,-49.32"/>
<polygon fill="black" stroke="black" points="28.21,-48.67 23.17,-39.35 21.3,-49.78 28.21,-48.67"/>
<text text-anchor="middle" x="18" y="-97.8" font-family="Times,serif" font-size="14.00">c</text>
</g>
<!-- 1 -->
<g id="node2" class="node">
<title>1</title>
<ellipse fill="none" stroke="black" cx="105" cy="-22" rx="18" ry="18"/>
<text text-anchor="middle" x="105" y="-18.3" font-family="Times,serif" font-size="14.00">1</text>
</g>
<!-- 0&#45;&gt;1 -->
<g id="edge1" class="edge">
<title>0&#45;&gt;1</title>
<path fill="none" stroke="black" d="M36.2,-22C47.84,-22 63.45,-22 76.76,-22"/>
<polygon fill="black" stroke="black" points="76.82,-25.5 86.82,-22 76.82,-18.5 76.82,-25.5"/>
<text text-anchor="middle" x="61.5" y="-25.8" font-family="Times,serif" font-size="14.00">a</text>
</g>
<!-- 2 -->
<g id="node3" class="node">
<title>2</title>
<ellipse fill="none" stroke="black" cx="196" cy="-22" rx="18" ry="18"/>
<ellipse fill="none" stroke="black" cx="196" cy="-22" rx="22" ry="22"/>
<text text-anchor="middle" x="196" y="-18.3" font-family="Times,serif" font-size="14.00">2</text>
</g>
<!-- 1&#45;&gt;2 -->
<g id="edge5" class="edge">
<title>1&#45;&gt;2</title>
<path fill="none" stroke="black" d="M123.16,-22C134.56,-22 149.87,-22 163.42,-22"/>
<polygon fill="black" stroke="black" points="163.81,-25.5 173.81,-22 163.81,-18.5 163.81,-25.5"/>
<text text-anchor="middle" x="148.5" y="-25.8" font-family="Times,serif" font-size="14.00">a</text>
</g>
<!-- 2&#45;&gt;2 -->
<g id="edge6" class="edge">
<title>2&#45;&gt;2</title>
<path fill="none" stroke="black" d="M193.16,-44.21C192.93,-53.8 193.87,-62 196,-62 197.3,-62 198.15,-58.95 198.57,-54.4"/>
<polygon fill="black" stroke="black" points="202.08,-54.3 198.84,-44.21 195.08,-54.12 202.08,-54.3"/>
<text text-anchor="middle" x="196" y="-65.8" font-family="Times,serif" font-size="14.00">a</text>
</g>
<!-- 2&#45;&gt;2 -->
<g id="edge7" class="edge">
<title>2&#45;&gt;2</title>
<path fill="none" stroke="black" d="M191.09,-43.72C189.06,-61.52 190.7,-80 196,-80 200.27,-80 202.16,-68.03 201.68,-54.08"/>
<polygon fill="black" stroke="black" points="205.14,-53.43 200.91,-43.72 198.16,-53.95 205.14,-53.43"/>
<text text-anchor="middle" x="196" y="-83.8" font-family="Times,serif" font-size="14.00">b</text>
</g>
<!-- 2&#45;&gt;2 -->
<g id="edge8" class="edge">
<title>2&#45;&gt;2</title>
<path fill="none" stroke="black" d="M189.74,-43.4C185.15,-68.6 187.24,-98 196,-98 203.6,-98 206.17,-75.89 203.74,-53.58"/>
<polygon fill="black" stroke="black" points="207.16,-52.79 202.26,-43.4 200.23,-53.79 207.16,-52.79"/>
<text text-anchor="middle" x="196" y="-101.8" font-family="Times,serif" font-size="14.00">c</text>
</g>
</g>
</svg>
