<?xml version="1.0" encoding="UTF-8" standalone="no"?>
<!DOCTYPE svg PUBLIC "-//W3C//DTD SVG 1.1//EN"
 "http://www.w3.org/Graphics/SVG/1.1/DTD/svg11.dtd">
<!-- Generated by graphviz version 2.47.3 (20210619.1520)
 -->
<!-- Title: FST Pages: 1 -->
<svg width="239pt" height="100pt"
 viewBox="0.00 0.00 239.00 100.00" xmlns="http://www.w3.org/2000/svg" xmlns:xlink="http://www.w3.org/1999/xlink">
<g id="graph0" class="graph" transform="scale(1 1) rotate(0) translate(4 96)">
<title>FST</title>
<polygon fill="white" stroke="transparent" points="-4,4 -4,-96 235,-96 235,4 -4,4"/>
<!-- 0 -->
<g id="node1" class="node">
<title>0</title>
<ellipse fill="none" stroke="black" stroke-width="2" cx="22" cy="-22" rx="18" ry="18"/>
<ellipse fill="none" stroke="black" stroke-width="2" cx="22" cy="-22" rx="22" ry="22"/>
<text text-anchor="middle" x="22" y="-18.3" font-family="Times,serif" font-size="14.00">0</text>
</g>
<!-- 1 -->
<g id="node2" class="node">
<title>1</title>
<ellipse fill="none" stroke="black" cx="119" cy="-64" rx="18" ry="18"/>
<text text-anchor="middle" x="119" y="-60.3" font-family="Times,serif" font-size="14.00">1</text>
</g>
<!-- 0&#45;&gt;1 -->
<g id="edge1" class="edge">
<title>0&#45;&gt;1</title>
<path fill="none" stroke="black" d="M42.68,-30.7C57.27,-37.15 77.25,-45.98 92.97,-52.93"/>
<polygon fill="black" stroke="black" points="91.55,-56.14 102.12,-56.98 94.39,-49.73 91.55,-56.14"/>
<text text-anchor="start" x="59" y="-59.8" font-family="Times,serif" font-size="14.00">ε/</text>
<text text-anchor="start" x="69" y="-59.8" font-family="Times,serif" font-style="italic" font-size="14.00">w</text>
<text text-anchor="start" x="79" y="-59.8" font-family="Times,serif" font-style="italic" baseline-shift="sub" font-size="14.00">1</text>
</g>
<!-- 2 -->
<g id="node3" class="node">
<title>2</title>
<ellipse fill="none" stroke="black" cx="213" cy="-60" rx="18" ry="18"/>
<text text-anchor="middle" x="213" y="-56.3" font-family="Times,serif" font-size="14.00">2</text>
</g>
<!-- 1&#45;&gt;2 -->
<g id="edge2" class="edge">
<title>1&#45;&gt;2</title>
<path fill="none" stroke="black" d="M135.63,-71.14C140.74,-73.12 146.51,-75 152,-76 164.24,-78.22 167.89,-78.86 180,-76 182.68,-75.37 185.4,-74.47 188.06,-73.42"/>
<polygon fill="black" stroke="black" points="189.65,-76.54 197.25,-69.16 186.7,-70.19 189.65,-76.54"/>
<text text-anchor="start" x="152.5" y="-87.8" font-family="Times,serif" font-size="14.00">a/</text>
<text text-anchor="start" x="162.5" y="-87.8" font-family="Times,serif" font-style="italic" font-size="14.00">w</text>
<text text-anchor="start" x="172.5" y="-87.8" font-family="Times,serif" font-style="italic" baseline-shift="sub" font-size="14.00">2</text>
</g>
<!-- 1&#45;&gt;2 -->
<g id="edge3" class="edge">
<title>1&#45;&gt;2</title>
<path fill="none" stroke="black" d="M136.43,-58.45C141.37,-57.03 146.85,-55.71 152,-55 162.76,-53.52 174.67,-54.06 185.02,-55.23"/>
<polygon fill="black" stroke="black" points="184.75,-58.73 195.14,-56.62 185.7,-51.79 184.75,-58.73"/>
<text text-anchor="start" x="152" y="-64.8" font-family="Times,serif" font-size="14.00">b/</text>
<text text-anchor="start" x="163" y="-64.8" font-family="Times,serif" font-style="italic" font-size="14.00">w</text>
<text text-anchor="start" x="173" y="-64.8" font-family="Times,serif" font-style="italic" baseline-shift="sub" font-size="14.00">3</text>
</g>
<!-- 2&#45;&gt;0 -->
<g id="edge4" class="edge">
<title>2&#45;&gt;0</title>
<path fill="none" stroke="black" d="M199.51,-47.68C185.61,-34.92 161.8,-15.76 137,-8 109.15,0.71 75.89,-5.11 52.5,-11.7"/>
<polygon fill="black" stroke="black" points="51.37,-8.38 42.82,-14.63 53.4,-15.08 51.37,-8.38"/>
<text text-anchor="start" x="105.5" y="-18.8" font-family="Times,serif" font-size="14.00">ε/</text>
<text text-anchor="start" x="115.5" y="-18.8" font-family="Times,serif" font-style="italic" font-size="14.00">w</text>
<text text-anchor="start" x="125.5" y="-18.8" font-family="Times,serif" font-style="italic" baseline-shift="sub" font-size="14.00">4</text>
</g>
</g>
</svg>
