<?xml version="1.0" encoding="UTF-8" standalone="no"?>
<!DOCTYPE svg PUBLIC "-//W3C//DTD SVG 1.1//EN"
 "http://www.w3.org/Graphics/SVG/1.1/DTD/svg11.dtd">
<!-- Generated by graphviz version 2.47.3 (20210619.1520)
 -->
<!-- Title: FST Pages: 1 -->
<svg width="146pt" height="85pt"
 viewBox="0.00 0.00 146.00 85.00" xmlns="http://www.w3.org/2000/svg" xmlns:xlink="http://www.w3.org/1999/xlink">
<g id="graph0" class="graph" transform="scale(1 1) rotate(0) translate(4 81)">
<title>FST</title>
<polygon fill="white" stroke="transparent" points="-4,4 -4,-81 142,-81 142,4 -4,4"/>
<!-- 0 -->
<g id="node1" class="node">
<title>0</title>
<ellipse fill="none" stroke="black" stroke-width="2" cx="18" cy="-22" rx="18" ry="18"/>
<text text-anchor="middle" x="18" y="-18.3" font-family="Times,serif" font-size="14.00">0</text>
</g>
<!-- 0&#45;&gt;0 -->
<g id="edge1" class="edge">
<title>0&#45;&gt;0</title>
<path fill="none" stroke="black" d="M9.98,-38.29C8.05,-48.39 10.72,-58 18,-58 22.66,-58 25.43,-54.06 26.32,-48.57"/>
<polygon fill="black" stroke="black" points="29.81,-48.18 26.02,-38.29 22.81,-48.39 29.81,-48.18"/>
<text text-anchor="middle" x="18" y="-61.8" font-family="Times,serif" font-size="14.00">a:x/1</text>
</g>
<!-- 1 -->
<g id="node2" class="node">
<title>1</title>
<ellipse fill="none" stroke="black" stroke-width="2" cx="116" cy="-22" rx="18" ry="18"/>
<ellipse fill="none" stroke="black" stroke-width="2" cx="116" cy="-22" rx="22" ry="22"/>
<text text-anchor="middle" x="116" y="-18.3" font-family="Times,serif" font-size="14.00">1</text>
</g>
<!-- 0&#45;&gt;1 -->
<g id="edge2" class="edge">
<title>0&#45;&gt;1</title>
<path fill="none" stroke="black" d="M36.16,-22C49.31,-22 67.81,-22 83.58,-22"/>
<polygon fill="black" stroke="black" points="83.97,-25.5 93.97,-22 83.97,-18.5 83.97,-25.5"/>
<text text-anchor="middle" x="65" y="-25.8" font-family="Times,serif" font-size="14.00">b:y/2</text>
</g>
<!-- 1&#45;&gt;1 -->
<g id="edge3" class="edge">
<title>1&#45;&gt;1</title>
<path fill="none" stroke="black" d="M106.95,-42.17C105.56,-52.6 108.58,-62 116,-62 120.87,-62 123.84,-57.95 124.92,-52.22"/>
<polygon fill="black" stroke="black" points="128.42,-52.21 125.05,-42.17 121.42,-52.12 128.42,-52.21"/>
<text text-anchor="middle" x="116" y="-65.8" font-family="Times,serif" font-size="14.00">c:z/3</text>
</g>
</g>
</svg>
