<?xml version="1.0" encoding="UTF-8" standalone="no"?>
<!DOCTYPE svg PUBLIC "-//W3C//DTD SVG 1.1//EN"
 "http://www.w3.org/Graphics/SVG/1.1/DTD/svg11.dtd">
<!-- Generated by graphviz version 2.47.3 (20210619.1520)
 -->
<!-- Title: FST Pages: 1 -->
<svg width="334pt" height="67pt"
 viewBox="0.00 0.00 334.00 66.86" xmlns="http://www.w3.org/2000/svg" xmlns:xlink="http://www.w3.org/1999/xlink">
<g id="graph0" class="graph" transform="scale(1 1) rotate(0) translate(4 62.86)">
<title>FST</title>
<polygon fill="white" stroke="transparent" points="-4,4 -4,-62.86 330,-62.86 330,4 -4,4"/>
<!-- 0 -->
<g id="node1" class="node">
<title>0</title>
<ellipse fill="none" stroke="black" stroke-width="2" cx="18" cy="-25.86" rx="18" ry="18"/>
<text text-anchor="middle" x="18" y="-22.16" font-family="Times,serif" font-size="14.00">0</text>
</g>
<!-- 1 -->
<g id="node2" class="node">
<title>1</title>
<ellipse fill="none" stroke="black" cx="112" cy="-25.86" rx="18" ry="18"/>
<text text-anchor="middle" x="112" y="-22.16" font-family="Times,serif" font-size="14.00">1</text>
</g>
<!-- 0&#45;&gt;1 -->
<g id="edge1" class="edge">
<title>0&#45;&gt;1</title>
<path fill="none" stroke="black" d="M33.75,-35.02C39,-37.79 45.08,-40.46 51,-41.86 63.11,-44.72 66.89,-44.72 79,-41.86 81.68,-41.23 84.4,-40.33 87.06,-39.29"/>
<polygon fill="black" stroke="black" points="88.65,-42.41 96.25,-35.02 85.7,-36.05 88.65,-42.41"/>
<text text-anchor="middle" x="65" y="-47.66" font-family="Times,serif" font-size="14.00">x:a/1</text>
</g>
<!-- 0&#45;&gt;1 -->
<g id="edge2" class="edge">
<title>0&#45;&gt;1</title>
<path fill="none" stroke="black" d="M35.92,-23.98C40.78,-23.52 46.1,-23.09 51,-22.86 63.43,-22.28 66.57,-22.28 79,-22.86 80.53,-22.93 82.11,-23.02 83.69,-23.13"/>
<polygon fill="black" stroke="black" points="83.83,-26.65 94.08,-23.98 84.4,-19.68 83.83,-26.65"/>
<text text-anchor="middle" x="65" y="-26.66" font-family="Times,serif" font-size="14.00">x:b/2</text>
</g>
<!-- 0&#45;&gt;1 -->
<g id="edge3" class="edge">
<title>0&#45;&gt;1</title>
<path fill="none" stroke="black" d="M31.67,-13.96C37.17,-9.57 43.97,-5.13 51,-2.86 62.85,0.95 67.15,0.95 79,-2.86 82.85,-4.1 86.62,-5.99 90.15,-8.17"/>
<polygon fill="black" stroke="black" points="88.15,-11.04 98.33,-13.96 92.19,-5.32 88.15,-11.04"/>
<text text-anchor="middle" x="65" y="-6.66" font-family="Times,serif" font-size="14.00">y:c/3</text>
</g>
<!-- 2 -->
<g id="node4" class="node">
<title>2</title>
<ellipse fill="none" stroke="black" cx="206" cy="-25.86" rx="18" ry="18"/>
<text text-anchor="middle" x="206" y="-22.16" font-family="Times,serif" font-size="14.00">2</text>
</g>
<!-- 1&#45;&gt;2 -->
<g id="edge4" class="edge">
<title>1&#45;&gt;2</title>
<path fill="none" stroke="black" d="M127.75,-35.02C133,-37.79 139.08,-40.46 145,-41.86 157.11,-44.72 160.89,-44.72 173,-41.86 175.68,-41.23 178.4,-40.33 181.06,-39.29"/>
<polygon fill="black" stroke="black" points="182.65,-42.41 190.25,-35.02 179.7,-36.05 182.65,-42.41"/>
<text text-anchor="middle" x="159" y="-47.66" font-family="Times,serif" font-size="14.00">x:a/3</text>
</g>
<!-- 1&#45;&gt;2 -->
<g id="edge5" class="edge">
<title>1&#45;&gt;2</title>
<path fill="none" stroke="black" d="M129.92,-23.98C134.78,-23.52 140.1,-23.09 145,-22.86 157.43,-22.28 160.57,-22.28 173,-22.86 174.53,-22.93 176.11,-23.02 177.69,-23.13"/>
<polygon fill="black" stroke="black" points="177.83,-26.65 188.08,-23.98 178.4,-19.68 177.83,-26.65"/>
<text text-anchor="middle" x="159" y="-26.66" font-family="Times,serif" font-size="14.00">y:b/2</text>
</g>
<!-- 1&#45;&gt;2 -->
<g id="edge6" class="edge">
<title>1&#45;&gt;2</title>
<path fill="none" stroke="black" d="M125.67,-13.96C131.17,-9.57 137.97,-5.13 145,-2.86 156.85,0.95 161.15,0.95 173,-2.86 176.85,-4.1 180.62,-5.99 184.15,-8.17"/>
<polygon fill="black" stroke="black" points="182.15,-11.04 192.33,-13.96 186.19,-5.32 182.15,-11.04"/>
<text text-anchor="middle" x="159" y="-6.66" font-family="Times,serif" font-size="14.00">z:c/1</text>
</g>
<!-- 3 -->
<g id="node3" class="node">
<title>3</title>
<ellipse fill="none" stroke="black" stroke-width="2" cx="304" cy="-25.86" rx="18" ry="18"/>
<ellipse fill="none" stroke="black" stroke-width="2" cx="304" cy="-25.86" rx="22" ry="22"/>
<text text-anchor="middle" x="304" y="-22.16" font-family="Times,serif" font-size="14.00">3</text>
</g>
<!-- 2&#45;&gt;3 -->
<g id="edge7" class="edge">
<title>2&#45;&gt;3</title>
<path fill="none" stroke="black" d="M221.75,-35.02C227,-37.79 233.08,-40.46 239,-41.86 251.11,-44.72 254.83,-44.44 267,-41.86 269.52,-41.33 272.07,-40.6 274.6,-39.76"/>
<polygon fill="black" stroke="black" points="276.04,-42.95 284.07,-36.04 273.48,-36.44 276.04,-42.95"/>
<text text-anchor="middle" x="253" y="-47.66" font-family="Times,serif" font-size="14.00">y:a/2</text>
</g>
<!-- 2&#45;&gt;3 -->
<g id="edge8" class="edge">
<title>2&#45;&gt;3</title>
<path fill="none" stroke="black" d="M223.92,-23.98C228.78,-23.52 234.1,-23.09 239,-22.86 251.43,-22.28 254.57,-22.34 267,-22.86 268.53,-22.92 270.09,-23 271.67,-23.09"/>
<polygon fill="black" stroke="black" points="271.86,-26.62 282.08,-23.82 272.35,-19.63 271.86,-26.62"/>
<text text-anchor="middle" x="253" y="-26.66" font-family="Times,serif" font-size="14.00">z:b/1</text>
</g>
<!-- 2&#45;&gt;3 -->
<g id="edge9" class="edge">
<title>2&#45;&gt;3</title>
<path fill="none" stroke="black" d="M219.67,-13.96C225.17,-9.57 231.97,-5.13 239,-2.86 250.85,0.95 255.05,0.63 267,-2.86 270.63,-3.92 274.24,-5.47 277.7,-7.28"/>
<polygon fill="black" stroke="black" points="276.02,-10.35 286.4,-12.48 279.61,-4.34 276.02,-10.35"/>
<text text-anchor="middle" x="253" y="-6.66" font-family="Times,serif" font-size="14.00">z:c/3</text>
</g>
</g>
</svg>
