<?xml version="1.0" encoding="UTF-8" standalone="no"?>
<!DOCTYPE svg PUBLIC "-//W3C//DTD SVG 1.1//EN"
 "http://www.w3.org/Graphics/SVG/1.1/DTD/svg11.dtd">
<!-- Generated by graphviz version 2.47.3 (20210619.1520)
 -->
<!-- Title: FST Pages: 1 -->
<svg width="334pt" height="120pt"
 viewBox="0.00 0.00 334.00 120.00" xmlns="http://www.w3.org/2000/svg" xmlns:xlink="http://www.w3.org/1999/xlink">
<g id="graph0" class="graph" transform="scale(1 1) rotate(0) translate(4 116)">
<title>FST</title>
<polygon fill="white" stroke="transparent" points="-4,4 -4,-116 330,-116 330,4 -4,4"/>
<!-- 0 -->
<g id="node1" class="node">
<title>0</title>
<ellipse fill="none" stroke="black" stroke-width="2" cx="18" cy="-56" rx="18" ry="18"/>
<text text-anchor="middle" x="18" y="-52.3" font-family="Times,serif" font-size="14.00">0</text>
</g>
<!-- 2 -->
<g id="node2" class="node">
<title>2</title>
<ellipse fill="none" stroke="black" cx="112" cy="-83" rx="18" ry="18"/>
<text text-anchor="middle" x="112" y="-79.3" font-family="Times,serif" font-size="14.00">2</text>
</g>
<!-- 0&#45;&gt;2 -->
<g id="edge1" class="edge">
<title>0&#45;&gt;2</title>
<path fill="none" stroke="black" d="M33.92,-64.56C39.18,-67.27 45.23,-70.07 51,-72 61.44,-75.49 73.29,-77.96 83.68,-79.66"/>
<polygon fill="black" stroke="black" points="83.46,-83.16 93.87,-81.17 84.49,-76.24 83.46,-83.16"/>
<text text-anchor="middle" x="65" y="-81.8" font-family="Times,serif" font-size="14.00">a:a/2</text>
</g>
<!-- 0&#45;&gt;2 -->
<g id="edge2" class="edge">
<title>0&#45;&gt;2</title>
<path fill="none" stroke="black" d="M35.64,-51.56C48.03,-49.09 65.13,-47.52 79,-53 84.09,-55.01 88.85,-58.26 93.06,-61.89"/>
<polygon fill="black" stroke="black" points="90.83,-64.61 100.41,-69.13 95.73,-59.62 90.83,-64.61"/>
<text text-anchor="middle" x="65" y="-56.8" font-family="Times,serif" font-size="14.00">a:b/3</text>
</g>
<!-- 3 -->
<g id="node3" class="node">
<title>3</title>
<ellipse fill="none" stroke="black" cx="112" cy="-18" rx="18" ry="18"/>
<text text-anchor="middle" x="112" y="-14.3" font-family="Times,serif" font-size="14.00">3</text>
</g>
<!-- 0&#45;&gt;3 -->
<g id="edge3" class="edge">
<title>0&#45;&gt;3</title>
<path fill="none" stroke="black" d="M31.4,-43.55C36.97,-38.62 43.88,-33.35 51,-30 61.24,-25.18 73.34,-22.3 83.99,-20.57"/>
<polygon fill="black" stroke="black" points="84.59,-24.02 94.02,-19.2 83.64,-17.08 84.59,-24.02"/>
<text text-anchor="middle" x="65" y="-33.8" font-family="Times,serif" font-size="14.00">b:c/5</text>
</g>
<!-- 4 -->
<g id="node5" class="node">
<title>4</title>
<ellipse fill="none" stroke="black" cx="206" cy="-94" rx="18" ry="18"/>
<text text-anchor="middle" x="206" y="-90.3" font-family="Times,serif" font-size="14.00">4</text>
</g>
<!-- 2&#45;&gt;4 -->
<g id="edge4" class="edge">
<title>2&#45;&gt;4</title>
<path fill="none" stroke="black" d="M130.3,-85.07C143.75,-86.68 162.65,-88.94 178.07,-90.78"/>
<polygon fill="black" stroke="black" points="177.74,-94.27 188.08,-91.98 178.57,-87.31 177.74,-94.27"/>
<text text-anchor="middle" x="159" y="-93.8" font-family="Times,serif" font-size="14.00">a:a/4</text>
</g>
<!-- 5 -->
<g id="node6" class="node">
<title>5</title>
<ellipse fill="none" stroke="black" cx="206" cy="-29" rx="18" ry="18"/>
<text text-anchor="middle" x="206" y="-25.3" font-family="Times,serif" font-size="14.00">5</text>
</g>
<!-- 2&#45;&gt;5 -->
<g id="edge5" class="edge">
<title>2&#45;&gt;5</title>
<path fill="none" stroke="black" d="M127.78,-74.32C142.18,-65.87 164.31,-52.88 181.19,-42.97"/>
<polygon fill="black" stroke="black" points="183.1,-45.91 189.95,-37.83 179.55,-39.88 183.1,-45.91"/>
<text text-anchor="middle" x="159" y="-66.8" font-family="Times,serif" font-size="14.00">b:b/4</text>
</g>
<!-- 3&#45;&gt;5 -->
<g id="edge6" class="edge">
<title>3&#45;&gt;5</title>
<path fill="none" stroke="black" d="M130.18,-16.99C142.24,-16.6 158.7,-16.7 173,-19 175.07,-19.33 177.18,-19.77 179.29,-20.27"/>
<polygon fill="black" stroke="black" points="178.36,-23.65 188.94,-23 180.26,-16.91 178.36,-23.65"/>
<text text-anchor="middle" x="159" y="-22.8" font-family="Times,serif" font-size="14.00">c:c/4</text>
</g>
<!-- 1 -->
<g id="node4" class="node">
<title>1</title>
<ellipse fill="none" stroke="black" stroke-width="2" cx="304" cy="-56" rx="18" ry="18"/>
<ellipse fill="none" stroke="black" stroke-width="2" cx="304" cy="-56" rx="22" ry="22"/>
<text text-anchor="middle" x="304" y="-52.3" font-family="Times,serif" font-size="14.00">1</text>
</g>
<!-- 4&#45;&gt;1 -->
<g id="edge7" class="edge">
<title>4&#45;&gt;1</title>
<path fill="none" stroke="black" d="M223.29,-87.55C237.02,-82.12 257.02,-74.2 273.55,-67.66"/>
<polygon fill="black" stroke="black" points="275.3,-70.73 283.31,-63.79 272.72,-64.22 275.3,-70.73"/>
<text text-anchor="middle" x="253" y="-83.8" font-family="Times,serif" font-size="14.00">b:a/4</text>
</g>
<!-- 5&#45;&gt;1 -->
<g id="edge8" class="edge">
<title>5&#45;&gt;1</title>
<path fill="none" stroke="black" d="M223.72,-33.7C237.12,-37.47 256.27,-42.86 272.4,-47.39"/>
<polygon fill="black" stroke="black" points="271.89,-50.89 282.46,-50.22 273.79,-44.15 271.89,-50.89"/>
<text text-anchor="middle" x="253" y="-48.8" font-family="Times,serif" font-size="14.00">c:b/4</text>
</g>
<!-- 5&#45;&gt;1 -->
<g id="edge9" class="edge">
<title>5&#45;&gt;1</title>
<path fill="none" stroke="black" d="M222.59,-21.82C235.04,-17.15 252.7,-12.96 267,-19 273.18,-21.61 278.82,-25.85 283.71,-30.55"/>
<polygon fill="black" stroke="black" points="281.38,-33.19 290.75,-38.15 286.52,-28.43 281.38,-33.19"/>
<text text-anchor="middle" x="253" y="-22.8" font-family="Times,serif" font-size="14.00">c:c/6</text>
</g>
</g>
</svg>
