<?xml version="1.0" encoding="UTF-8" standalone="no"?>
<!DOCTYPE svg PUBLIC "-//W3C//DTD SVG 1.1//EN"
 "http://www.w3.org/Graphics/SVG/1.1/DTD/svg11.dtd">
<!-- Generated by graphviz version 2.47.3 (20210619.1520)
 -->
<!-- Title: FST Pages: 1 -->
<svg width="333pt" height="59pt"
 viewBox="0.00 0.00 333.00 59.12" xmlns="http://www.w3.org/2000/svg" xmlns:xlink="http://www.w3.org/1999/xlink">
<g id="graph0" class="graph" transform="scale(1 1) rotate(0) translate(4 55.12)">
<title>FST</title>
<polygon fill="white" stroke="transparent" points="-4,4 -4,-55.12 329,-55.12 329,4 -4,4"/>
<!-- 0 -->
<g id="node1" class="node">
<title>0</title>
<ellipse fill="none" stroke="black" stroke-width="2" cx="18" cy="-29.12" rx="18" ry="18"/>
<text text-anchor="middle" x="18" y="-25.42" font-family="Times,serif" font-size="14.00">0</text>
</g>
<!-- 1 -->
<g id="node2" class="node">
<title>1</title>
<ellipse fill="none" stroke="black" cx="112" cy="-29.12" rx="18" ry="18"/>
<text text-anchor="middle" x="112" y="-25.42" font-family="Times,serif" font-size="14.00">1</text>
</g>
<!-- 0&#45;&gt;1 -->
<g id="edge1" class="edge">
<title>0&#45;&gt;1</title>
<path fill="none" stroke="black" d="M36.3,-29.12C49.54,-29.12 68.05,-29.12 83.34,-29.12"/>
<polygon fill="black" stroke="black" points="83.77,-32.62 93.77,-29.12 83.77,-25.62 83.77,-32.62"/>
<text text-anchor="start" x="51.5" y="-39.92" font-family="Times,serif" font-size="14.00">a/</text>
<text text-anchor="start" x="61.5" y="-39.92" font-family="Times,serif" font-style="italic" font-size="14.00">C</text>
<text text-anchor="start" x="71.5" y="-39.92" font-family="Times,serif" font-style="italic" baseline-shift="sub" font-size="14.00">1</text>
</g>
<!-- 0&#45;&gt;1 -->
<g id="edge2" class="edge">
<title>0&#45;&gt;1</title>
<path fill="none" stroke="black" d="M30.81,-16.24C36.38,-11.12 43.44,-5.81 51,-3.12 62.73,1.04 67.27,1.04 79,-3.12 83.37,-4.67 87.57,-7.1 91.42,-9.87"/>
<polygon fill="black" stroke="black" points="89.24,-12.6 99.19,-16.24 93.68,-7.19 89.24,-12.6"/>
<text text-anchor="start" x="51" y="-13.92" font-family="Times,serif" font-size="14.00">b/</text>
<text text-anchor="start" x="62" y="-13.92" font-family="Times,serif" font-style="italic" font-size="14.00">C</text>
<text text-anchor="start" x="72" y="-13.92" font-family="Times,serif" font-style="italic" baseline-shift="sub" font-size="14.00">2</text>
</g>
<!-- 2 -->
<g id="node3" class="node">
<title>2</title>
<ellipse fill="none" stroke="black" cx="205" cy="-29.12" rx="18" ry="18"/>
<text text-anchor="middle" x="205" y="-25.42" font-family="Times,serif" font-size="14.00">2</text>
</g>
<!-- 1&#45;&gt;2 -->
<g id="edge3" class="edge">
<title>1&#45;&gt;2</title>
<path fill="none" stroke="black" d="M130.12,-29.12C143.21,-29.12 161.52,-29.12 176.64,-29.12"/>
<polygon fill="black" stroke="black" points="176.96,-32.62 186.96,-29.12 176.96,-25.62 176.96,-32.62"/>
<text text-anchor="start" x="145" y="-39.92" font-family="Times,serif" font-size="14.00">ε/</text>
<text text-anchor="start" x="155" y="-39.92" font-family="Times,serif" font-style="italic" font-size="14.00">C</text>
<text text-anchor="start" x="165" y="-39.92" font-family="Times,serif" font-style="italic" baseline-shift="sub" font-size="14.00">3</text>
</g>
<!-- 3 -->
<g id="node4" class="node">
<title>3</title>
<ellipse fill="none" stroke="black" cx="303" cy="-29.12" rx="18" ry="18"/>
<ellipse fill="none" stroke="black" cx="303" cy="-29.12" rx="22" ry="22"/>
<text text-anchor="middle" x="303" y="-25.42" font-family="Times,serif" font-size="14.00">3</text>
</g>
<!-- 2&#45;&gt;3 -->
<g id="edge4" class="edge">
<title>2&#45;&gt;3</title>
<path fill="none" stroke="black" d="M223.16,-29.12C236.31,-29.12 254.81,-29.12 270.58,-29.12"/>
<polygon fill="black" stroke="black" points="270.97,-32.62 280.97,-29.12 270.97,-25.62 270.97,-32.62"/>
<text text-anchor="start" x="238" y="-39.92" font-family="Times,serif" font-size="14.00">b/</text>
<text text-anchor="start" x="249" y="-39.92" font-family="Times,serif" font-style="italic" font-size="14.00">C</text>
<text text-anchor="start" x="259" y="-39.92" font-family="Times,serif" font-style="italic" baseline-shift="sub" font-size="14.00">4</text>
</g>
<!-- 2&#45;&gt;3 -->
<g id="edge5" class="edge">
<title>2&#45;&gt;3</title>
<path fill="none" stroke="black" d="M217.81,-16.24C223.38,-11.12 230.44,-5.81 238,-3.12 249.73,1.04 254.16,0.71 266,-3.12 270.13,-4.46 274.18,-6.46 277.99,-8.77"/>
<polygon fill="black" stroke="black" points="276.15,-11.76 286.36,-14.57 280.13,-6 276.15,-11.76"/>
<text text-anchor="start" x="238.5" y="-13.92" font-family="Times,serif" font-size="14.00">c/</text>
<text text-anchor="start" x="248.5" y="-13.92" font-family="Times,serif" font-style="italic" font-size="14.00">C</text>
<text text-anchor="start" x="258.5" y="-13.92" font-family="Times,serif" font-style="italic" baseline-shift="sub" font-size="14.00">5</text>
</g>
</g>
</svg>
