<?xml version="1.0" encoding="UTF-8" standalone="no"?>
<!DOCTYPE svg PUBLIC "-//W3C//DTD SVG 1.1//EN"
 "http://www.w3.org/Graphics/SVG/1.1/DTD/svg11.dtd">
<!-- Generated by graphviz version 2.47.3 (20210619.1520)
 -->
<!-- Title: FST Pages: 1 -->
<svg width="179pt" height="90pt"
 viewBox="0.00 0.00 179.00 89.50" xmlns="http://www.w3.org/2000/svg" xmlns:xlink="http://www.w3.org/1999/xlink">
<g id="graph0" class="graph" transform="scale(1 1) rotate(0) translate(4 85.5)">
<title>FST</title>
<polygon fill="white" stroke="transparent" points="-4,4 -4,-85.5 175,-85.5 175,4 -4,4"/>
<!-- 0 -->
<g id="node1" class="node">
<title>0</title>
</g>
<!-- 3 -->
<g id="node2" class="node">
<title>3</title>
<ellipse fill="none" stroke="black" cx="66.5" cy="-38.5" rx="21.5" ry="21.5"/>
<text text-anchor="start" x="51" y="-35.8" font-family="Times,serif" font-style="italic" font-size="14.00">u / s</text>
<text text-anchor="start" x="75" y="-35.8" font-family="Times,serif" font-style="italic" baseline-shift="sub" font-size="14.00">u</text>
</g>
<!-- 0&#45;&gt;3 -->
<g id="edge1" class="edge">
<title>0&#45;&gt;3</title>
<path fill="none" stroke="black" d="M1.05,-76.47C2.13,-75.84 21.67,-64.33 38.95,-54.14"/>
<polygon fill="black" stroke="black" points="40.83,-57.09 47.67,-49 37.28,-51.06 40.83,-57.09"/>
<text text-anchor="start" x="16" y="-75.3" font-family="Times,serif" font-style="italic" font-size="14.00">p</text>
<text text-anchor="start" x="23" y="-75.3" font-family="Times,serif" font-style="italic" baseline-shift="sub" font-size="14.00">1</text>
</g>
<!-- 4 -->
<g id="node5" class="node">
<title>4</title>
<ellipse fill="none" stroke="black" cx="149.5" cy="-38.5" rx="21.5" ry="21.5"/>
<text text-anchor="start" x="135" y="-35.8" font-family="Times,serif" font-style="italic" font-size="14.00">v / s</text>
<text text-anchor="start" x="158" y="-35.8" font-family="Times,serif" font-style="italic" baseline-shift="sub" font-size="14.00">v</text>
</g>
<!-- 3&#45;&gt;4 -->
<g id="edge4" class="edge">
<title>3&#45;&gt;4</title>
<path fill="none" stroke="black" d="M88.36,-38.5C97.31,-38.5 107.95,-38.5 117.77,-38.5"/>
<polygon fill="black" stroke="black" points="117.99,-42 127.99,-38.5 117.99,-35 117.99,-42"/>
<text text-anchor="start" x="103" y="-43.3" font-family="Times,serif" font-style="italic" font-size="14.00">w</text>
</g>
<!-- 1 -->
<g id="node3" class="node">
<title>1</title>
</g>
<!-- 1&#45;&gt;3 -->
<g id="edge2" class="edge">
<title>1&#45;&gt;3</title>
<path fill="none" stroke="black" d="M1.05,-38.5C2.04,-38.5 18.54,-38.5 34.6,-38.5"/>
<polygon fill="black" stroke="black" points="34.93,-42 44.93,-38.5 34.93,-35 34.93,-42"/>
<text text-anchor="start" x="16" y="-48.3" font-family="Times,serif" font-style="italic" font-size="14.00">p</text>
<text text-anchor="start" x="23" y="-48.3" font-family="Times,serif" font-style="italic" baseline-shift="sub" font-size="14.00">2</text>
</g>
<!-- 2 -->
<g id="node4" class="node">
<title>2</title>
</g>
<!-- 2&#45;&gt;3 -->
<g id="edge3" class="edge">
<title>2&#45;&gt;3</title>
<path fill="none" stroke="black" d="M1.05,-0.53C2.13,-1.16 21.67,-12.67 38.95,-22.86"/>
<polygon fill="black" stroke="black" points="37.28,-25.94 47.67,-28 40.83,-19.91 37.28,-25.94"/>
<text text-anchor="start" x="16" y="-26.3" font-family="Times,serif" font-style="italic" font-size="14.00">p</text>
<text text-anchor="start" x="23" y="-26.3" font-family="Times,serif" font-style="italic" baseline-shift="sub" font-size="14.00">3</text>
</g>
</g>
</svg>
