<?xml version="1.0" encoding="UTF-8" standalone="no"?>
<!DOCTYPE svg PUBLIC "-//W3C//DTD SVG 1.1//EN"
 "http://www.w3.org/Graphics/SVG/1.1/DTD/svg11.dtd">
<!-- Generated by graphviz version 2.47.3 (20210619.1520)
 -->
<!-- Title: FST Pages: 1 -->
<svg width="240pt" height="108pt"
 viewBox="0.00 0.00 240.00 108.00" xmlns="http://www.w3.org/2000/svg" xmlns:xlink="http://www.w3.org/1999/xlink">
<g id="graph0" class="graph" transform="scale(1 1) rotate(0) translate(4 104)">
<title>FST</title>
<polygon fill="white" stroke="transparent" points="-4,4 -4,-104 236,-104 236,4 -4,4"/>
<!-- 0 -->
<g id="node1" class="node">
<title>0</title>
<ellipse fill="none" stroke="black" stroke-width="2" cx="18" cy="-45" rx="18" ry="18"/>
<text text-anchor="middle" x="18" y="-41.3" font-family="Times,serif" font-size="14.00">0</text>
</g>
<!-- 0&#45;&gt;0 -->
<g id="edge1" class="edge">
<title>0&#45;&gt;0</title>
<path fill="none" stroke="black" d="M9.98,-61.29C8.05,-71.39 10.72,-81 18,-81 22.66,-81 25.43,-77.06 26.32,-71.57"/>
<polygon fill="black" stroke="black" points="29.81,-71.18 26.02,-61.29 22.81,-71.39 29.81,-71.18"/>
<text text-anchor="middle" x="18" y="-84.8" font-family="Times,serif" font-size="14.00">a:z/1</text>
</g>
<!-- 1 -->
<g id="node2" class="node">
<title>1</title>
<ellipse fill="none" stroke="black" cx="112" cy="-72" rx="18" ry="18"/>
<text text-anchor="middle" x="112" y="-68.3" font-family="Times,serif" font-size="14.00">1</text>
</g>
<!-- 0&#45;&gt;1 -->
<g id="edge2" class="edge">
<title>0&#45;&gt;1</title>
<path fill="none" stroke="black" d="M35.45,-49.83C49.1,-53.83 68.77,-59.61 84.62,-64.26"/>
<polygon fill="black" stroke="black" points="83.8,-67.67 94.38,-67.12 85.77,-60.95 83.8,-67.67"/>
<text text-anchor="middle" x="65" y="-65.8" font-family="Times,serif" font-size="14.00">a:z/2</text>
</g>
<!-- 2 -->
<g id="node3" class="node">
<title>2</title>
<ellipse fill="none" stroke="black" cx="112" cy="-18" rx="18" ry="18"/>
<text text-anchor="middle" x="112" y="-14.3" font-family="Times,serif" font-size="14.00">2</text>
</g>
<!-- 0&#45;&gt;2 -->
<g id="edge3" class="edge">
<title>0&#45;&gt;2</title>
<path fill="none" stroke="black" d="M35.25,-39.83C40.29,-38.25 45.87,-36.53 51,-35 61.97,-31.73 74.12,-28.26 84.6,-25.32"/>
<polygon fill="black" stroke="black" points="85.72,-28.64 94.41,-22.57 83.84,-21.89 85.72,-28.64"/>
<text text-anchor="middle" x="65" y="-38.8" font-family="Times,serif" font-size="14.00">a:y/2</text>
</g>
<!-- 3 -->
<g id="node4" class="node">
<title>3</title>
<ellipse fill="none" stroke="black" cx="210" cy="-45" rx="18" ry="18"/>
<ellipse fill="none" stroke="black" cx="210" cy="-45" rx="22" ry="22"/>
<text text-anchor="middle" x="210" y="-41.3" font-family="Times,serif" font-size="14.00">3</text>
</g>
<!-- 1&#45;&gt;3 -->
<g id="edge4" class="edge">
<title>1&#45;&gt;3</title>
<path fill="none" stroke="black" d="M129.72,-67.3C143.12,-63.53 162.27,-58.14 178.4,-53.61"/>
<polygon fill="black" stroke="black" points="179.79,-56.85 188.46,-50.78 177.89,-50.11 179.79,-56.85"/>
<text text-anchor="middle" x="159" y="-65.8" font-family="Times,serif" font-size="14.00">a:y/3</text>
</g>
<!-- 2&#45;&gt;3 -->
<g id="edge5" class="edge">
<title>2&#45;&gt;3</title>
<path fill="none" stroke="black" d="M129.72,-22.7C143.12,-26.47 162.27,-31.86 178.4,-36.39"/>
<polygon fill="black" stroke="black" points="177.89,-39.89 188.46,-39.22 179.79,-33.15 177.89,-39.89"/>
<text text-anchor="middle" x="159" y="-37.8" font-family="Times,serif" font-size="14.00">b:y/3</text>
</g>
<!-- 3&#45;&gt;3 -->
<g id="edge6" class="edge">
<title>3&#45;&gt;3</title>
<path fill="none" stroke="black" d="M200.95,-65.17C199.56,-75.6 202.58,-85 210,-85 214.87,-85 217.84,-80.95 218.92,-75.22"/>
<polygon fill="black" stroke="black" points="222.42,-75.21 219.05,-65.17 215.42,-75.12 222.42,-75.21"/>
<text text-anchor="middle" x="210" y="-88.8" font-family="Times,serif" font-size="14.00">b:y/1</text>
</g>
</g>
</svg>
