<?xml version="1.0" encoding="UTF-8" standalone="no"?>
<!DOCTYPE svg PUBLIC "-//W3C//DTD SVG 1.1//EN"
 "http://www.w3.org/Graphics/SVG/1.1/DTD/svg11.dtd">
<!-- Generated by graphviz version 2.47.3 (20210619.1520)
 -->
<!-- Title: FST Pages: 1 -->
<svg width="333pt" height="52pt"
 viewBox="0.00 0.00 333.00 52.00" xmlns="http://www.w3.org/2000/svg" xmlns:xlink="http://www.w3.org/1999/xlink">
<g id="graph0" class="graph" transform="scale(1 1) rotate(0) translate(4 48)">
<title>FST</title>
<polygon fill="white" stroke="transparent" points="-4,4 -4,-48 329,-48 329,4 -4,4"/>
<!-- 0 -->
<g id="node1" class="node">
<title>0</title>
<ellipse fill="none" stroke="black" stroke-width="2" cx="18" cy="-22" rx="18" ry="18"/>
<text text-anchor="middle" x="18" y="-18.3" font-family="Times,serif" font-size="14.00">0</text>
</g>
<!-- 1 -->
<g id="node2" class="node">
<title>1</title>
<ellipse fill="none" stroke="black" cx="112" cy="-22" rx="18" ry="18"/>
<text text-anchor="middle" x="112" y="-18.3" font-family="Times,serif" font-size="14.00">1</text>
</g>
<!-- 0&#45;&gt;1 -->
<g id="edge1" class="edge">
<title>0&#45;&gt;1</title>
<path fill="none" stroke="black" d="M36.3,-22C49.54,-22 68.05,-22 83.34,-22"/>
<polygon fill="black" stroke="black" points="83.77,-25.5 93.77,-22 83.77,-18.5 83.77,-25.5"/>
<text text-anchor="middle" x="65" y="-25.8" font-family="Times,serif" font-size="14.00">ε:x/0</text>
</g>
<!-- 2 -->
<g id="node3" class="node">
<title>2</title>
<ellipse fill="none" stroke="black" cx="206" cy="-22" rx="18" ry="18"/>
<text text-anchor="middle" x="206" y="-18.3" font-family="Times,serif" font-size="14.00">2</text>
</g>
<!-- 1&#45;&gt;2 -->
<g id="edge2" class="edge">
<title>1&#45;&gt;2</title>
<path fill="none" stroke="black" d="M130.3,-22C143.54,-22 162.05,-22 177.34,-22"/>
<polygon fill="black" stroke="black" points="177.77,-25.5 187.77,-22 177.77,-18.5 177.77,-25.5"/>
<text text-anchor="middle" x="159" y="-25.8" font-family="Times,serif" font-size="14.00">b:ε/0</text>
</g>
<!-- 3 -->
<g id="node4" class="node">
<title>3</title>
<ellipse fill="none" stroke="black" cx="303" cy="-22" rx="18" ry="18"/>
<ellipse fill="none" stroke="black" cx="303" cy="-22" rx="22" ry="22"/>
<text text-anchor="middle" x="303" y="-18.3" font-family="Times,serif" font-size="14.00">3</text>
</g>
<!-- 2&#45;&gt;3 -->
<g id="edge3" class="edge">
<title>2&#45;&gt;3</title>
<path fill="none" stroke="black" d="M224.42,-22C237.31,-22 255.2,-22 270.56,-22"/>
<polygon fill="black" stroke="black" points="270.69,-25.5 280.69,-22 270.69,-18.5 270.69,-25.5"/>
<text text-anchor="middle" x="252.5" y="-25.8" font-family="Times,serif" font-size="14.00">ε:ε/0</text>
</g>
</g>
</svg>
