<?xml version="1.0" encoding="UTF-8" standalone="no"?>
<!DOCTYPE svg PUBLIC "-//W3C//DTD SVG 1.1//EN"
 "http://www.w3.org/Graphics/SVG/1.1/DTD/svg11.dtd">
<!-- Generated by graphviz version 2.47.3 (20210619.1520)
 -->
<!-- Title: FST Pages: 1 -->
<svg width="220pt" height="65pt"
 viewBox="0.00 0.00 220.00 64.84" xmlns="http://www.w3.org/2000/svg" xmlns:xlink="http://www.w3.org/1999/xlink">
<g id="graph0" class="graph" transform="scale(1 1) rotate(0) translate(4 60.84)">
<title>FST</title>
<polygon fill="white" stroke="transparent" points="-4,4 -4,-60.84 216,-60.84 216,4 -4,4"/>
<!-- 0 -->
<g id="node1" class="node">
<title>0</title>
<ellipse fill="none" stroke="black" stroke-width="2" cx="18" cy="-24.84" rx="18" ry="18"/>
<text text-anchor="middle" x="18" y="-21.14" font-family="Times,serif" font-size="14.00">0</text>
</g>
<!-- 1 -->
<g id="node2" class="node">
<title>1</title>
<ellipse fill="none" stroke="black" cx="102" cy="-24.84" rx="18" ry="18"/>
<text text-anchor="middle" x="102" y="-21.14" font-family="Times,serif" font-size="14.00">1</text>
</g>
<!-- 0&#45;&gt;1 -->
<g id="edge1" class="edge">
<title>0&#45;&gt;1</title>
<path fill="none" stroke="black" d="M33.75,-34C39,-36.77 45.08,-39.44 51,-40.84 58.79,-42.68 61.21,-42.68 69,-40.84 71.68,-40.21 74.4,-39.31 77.06,-38.26"/>
<polygon fill="black" stroke="black" points="78.65,-41.38 86.25,-34 75.7,-35.03 78.65,-41.38"/>
<text text-anchor="middle" x="60" y="-45.64" font-family="Times,serif" font-size="14.00">a/0</text>
</g>
<!-- 0&#45;&gt;1 -->
<g id="edge2" class="edge">
<title>0&#45;&gt;1</title>
<path fill="none" stroke="black" d="M35.92,-22.96C40.78,-22.5 46.1,-22.07 51,-21.84 58.99,-21.47 61.01,-21.47 69,-21.84 70.53,-21.91 72.11,-22 73.69,-22.11"/>
<polygon fill="black" stroke="black" points="73.83,-25.63 84.08,-22.96 74.4,-18.65 73.83,-25.63"/>
<text text-anchor="middle" x="60" y="-25.64" font-family="Times,serif" font-size="14.00">b/0</text>
</g>
<!-- 0&#45;&gt;1 -->
<g id="edge3" class="edge">
<title>0&#45;&gt;1</title>
<path fill="none" stroke="black" d="M31.67,-12.94C37.17,-8.55 43.97,-4.1 51,-1.84 58.61,0.61 61.39,0.61 69,-1.84 72.85,-3.08 76.62,-4.97 80.15,-7.15"/>
<polygon fill="black" stroke="black" points="78.15,-10.02 88.33,-12.94 82.19,-4.3 78.15,-10.02"/>
<text text-anchor="middle" x="60" y="-5.64" font-family="Times,serif" font-size="14.00">c/0</text>
</g>
<!-- 2 -->
<g id="node3" class="node">
<title>2</title>
<ellipse fill="none" stroke="black" cx="190" cy="-24.84" rx="18" ry="18"/>
<ellipse fill="none" stroke="black" cx="190" cy="-24.84" rx="22" ry="22"/>
<text text-anchor="middle" x="190" y="-21.14" font-family="Times,serif" font-size="14.00">2</text>
</g>
<!-- 1&#45;&gt;2 -->
<g id="edge4" class="edge">
<title>1&#45;&gt;2</title>
<path fill="none" stroke="black" d="M117.75,-34C123,-36.77 129.08,-39.44 135,-40.84 143.39,-42.82 152.4,-41.54 160.62,-39.01"/>
<polygon fill="black" stroke="black" points="162.01,-42.22 170.15,-35.44 159.55,-35.67 162.01,-42.22"/>
<text text-anchor="middle" x="144" y="-44.64" font-family="Times,serif" font-size="14.00">a/0</text>
</g>
<!-- 1&#45;&gt;2 -->
<g id="edge5" class="edge">
<title>1&#45;&gt;2</title>
<path fill="none" stroke="black" d="M119.92,-22.96C124.78,-22.5 130.1,-22.07 135,-21.84 142.39,-21.49 150.36,-21.65 157.84,-22.02"/>
<polygon fill="black" stroke="black" points="157.77,-25.52 167.98,-22.67 158.22,-18.54 157.77,-25.52"/>
<text text-anchor="middle" x="144" y="-25.64" font-family="Times,serif" font-size="14.00">b/0</text>
</g>
<!-- 1&#45;&gt;2 -->
<g id="edge6" class="edge">
<title>1&#45;&gt;2</title>
<path fill="none" stroke="black" d="M115.67,-12.94C121.17,-8.55 127.97,-4.1 135,-1.84 144.5,1.22 154.64,-1.43 163.54,-5.87"/>
<polygon fill="black" stroke="black" points="161.88,-8.95 172.28,-10.98 165.41,-2.91 161.88,-8.95"/>
<text text-anchor="middle" x="144" y="-5.64" font-family="Times,serif" font-size="14.00">c/0</text>
</g>
</g>
</svg>
