<?xml version="1.0" encoding="UTF-8" standalone="no"?>
<!DOCTYPE svg PUBLIC "-//W3C//DTD SVG 1.1//EN"
 "http://www.w3.org/Graphics/SVG/1.1/DTD/svg11.dtd">
<!-- Generated by graphviz version 2.47.3 (20210619.1520)
 -->
<!-- Title: FST Pages: 1 -->
<svg width="304pt" height="120pt"
 viewBox="0.00 0.00 304.00 120.00" xmlns="http://www.w3.org/2000/svg" xmlns:xlink="http://www.w3.org/1999/xlink">
<g id="graph0" class="graph" transform="scale(1 1) rotate(0) translate(4 116)">
<title>FST</title>
<polygon fill="white" stroke="transparent" points="-4,4 -4,-116 300,-116 300,4 -4,4"/>
<!-- 0 -->
<g id="node1" class="node">
<title>0</title>
<ellipse fill="none" stroke="black" stroke-width="2" cx="18" cy="-45" rx="18" ry="18"/>
<text text-anchor="middle" x="18" y="-41.3" font-family="Times,serif" font-size="14.00">0</text>
</g>
<!-- 1 -->
<g id="node2" class="node">
<title>1</title>
<ellipse fill="none" stroke="black" cx="102" cy="-72" rx="18" ry="18"/>
<text text-anchor="middle" x="102" y="-68.3" font-family="Times,serif" font-size="14.00">1</text>
</g>
<!-- 0&#45;&gt;1 -->
<g id="edge1" class="edge">
<title>0&#45;&gt;1</title>
<path fill="none" stroke="black" d="M35.2,-50.33C46.47,-54.05 61.74,-59.07 74.74,-63.35"/>
<polygon fill="black" stroke="black" points="73.96,-66.78 84.55,-66.58 76.15,-60.13 73.96,-66.78"/>
<text text-anchor="middle" x="60" y="-63.8" font-family="Times,serif" font-size="14.00">a/1</text>
</g>
<!-- 2 -->
<g id="node3" class="node">
<title>2</title>
<ellipse fill="none" stroke="black" cx="102" cy="-18" rx="18" ry="18"/>
<text text-anchor="middle" x="102" y="-14.3" font-family="Times,serif" font-size="14.00">2</text>
</g>
<!-- 0&#45;&gt;2 -->
<g id="edge2" class="edge">
<title>0&#45;&gt;2</title>
<path fill="none" stroke="black" d="M35.2,-39.67C46.47,-35.95 61.74,-30.93 74.74,-26.65"/>
<polygon fill="black" stroke="black" points="76.15,-29.87 84.55,-23.42 73.96,-23.22 76.15,-29.87"/>
<text text-anchor="middle" x="60" y="-36.8" font-family="Times,serif" font-size="14.00">b/2</text>
</g>
<!-- 3 -->
<g id="node4" class="node">
<title>3</title>
<ellipse fill="none" stroke="black" cx="186" cy="-94" rx="18" ry="18"/>
<text text-anchor="middle" x="186" y="-90.3" font-family="Times,serif" font-size="14.00">3</text>
</g>
<!-- 1&#45;&gt;3 -->
<g id="edge3" class="edge">
<title>1&#45;&gt;3</title>
<path fill="none" stroke="black" d="M119.59,-76.45C130.82,-79.46 145.88,-83.51 158.72,-86.95"/>
<polygon fill="black" stroke="black" points="157.87,-90.34 168.43,-89.55 159.68,-83.58 157.87,-90.34"/>
<text text-anchor="middle" x="144" y="-87.8" font-family="Times,serif" font-size="14.00">a/1</text>
</g>
<!-- 4 -->
<g id="node5" class="node">
<title>4</title>
<ellipse fill="none" stroke="black" cx="186" cy="-40" rx="18" ry="18"/>
<text text-anchor="middle" x="186" y="-36.3" font-family="Times,serif" font-size="14.00">4</text>
</g>
<!-- 1&#45;&gt;4 -->
<g id="edge4" class="edge">
<title>1&#45;&gt;4</title>
<path fill="none" stroke="black" d="M119.2,-65.68C130.66,-61.21 146.25,-55.12 159.38,-50"/>
<polygon fill="black" stroke="black" points="160.79,-53.21 168.83,-46.31 158.24,-46.68 160.79,-53.21"/>
<text text-anchor="middle" x="144" y="-61.8" font-family="Times,serif" font-size="14.00">b/2</text>
</g>
<!-- 2&#45;&gt;4 -->
<g id="edge5" class="edge">
<title>2&#45;&gt;4</title>
<path fill="none" stroke="black" d="M120.04,-16.03C129.88,-15.46 142.38,-15.71 153,-19 156.4,-20.05 159.79,-21.59 163.01,-23.35"/>
<polygon fill="black" stroke="black" points="161.21,-26.36 171.53,-28.74 164.95,-20.44 161.21,-26.36"/>
<text text-anchor="middle" x="144" y="-22.8" font-family="Times,serif" font-size="14.00">c/3</text>
</g>
<!-- 5 -->
<g id="node6" class="node">
<title>5</title>
<ellipse fill="none" stroke="black" cx="274" cy="-67" rx="18" ry="18"/>
<ellipse fill="none" stroke="black" cx="274" cy="-67" rx="22" ry="22"/>
<text text-anchor="middle" x="274" y="-63.3" font-family="Times,serif" font-size="14.00">5</text>
</g>
<!-- 3&#45;&gt;5 -->
<g id="edge6" class="edge">
<title>3&#45;&gt;5</title>
<path fill="none" stroke="black" d="M203.58,-88.79C214.78,-85.28 229.89,-80.53 243.15,-76.37"/>
<polygon fill="black" stroke="black" points="244.34,-79.67 252.84,-73.33 242.25,-72.99 244.34,-79.67"/>
<text text-anchor="middle" x="228" y="-86.8" font-family="Times,serif" font-size="14.00">b/2</text>
</g>
<!-- 4&#45;&gt;5 -->
<g id="edge7" class="edge">
<title>4&#45;&gt;5</title>
<path fill="none" stroke="black" d="M203.58,-45.21C214.78,-48.72 229.89,-53.47 243.15,-57.63"/>
<polygon fill="black" stroke="black" points="242.25,-61.01 252.84,-60.67 244.34,-54.33 242.25,-61.01"/>
<text text-anchor="middle" x="228" y="-58.8" font-family="Times,serif" font-size="14.00">c/3</text>
</g>
</g>
</svg>
