<?xml version="1.0" encoding="UTF-8" standalone="no"?>
<!DOCTYPE svg PUBLIC "-//W3C//DTD SVG 1.1//EN"
 "http://www.w3.org/Graphics/SVG/1.1/DTD/svg11.dtd">
<!-- Generated by graphviz version 2.47.3 (20210619.1520)
 -->
<!-- Title: FST Pages: 1 -->
<svg width="136pt" height="85pt"
 viewBox="0.00 0.00 136.00 85.00" xmlns="http://www.w3.org/2000/svg" xmlns:xlink="http://www.w3.org/1999/xlink">
<g id="graph0" class="graph" transform="scale(1 1) rotate(0) translate(4 81)">
<title>FST</title>
<polygon fill="white" stroke="transparent" points="-4,4 -4,-81 132,-81 132,4 -4,4"/>
<!-- 0 -->
<g id="node1" class="node">
<title>0</title>
<ellipse fill="none" stroke="black" stroke-width="2" cx="18" cy="-22" rx="18" ry="18"/>
<text text-anchor="middle" x="18" y="-18.3" font-family="Times,serif" font-size="14.00">0</text>
</g>
<!-- 0&#45;&gt;0 -->
<g id="edge1" class="edge">
<title>0&#45;&gt;0</title>
<path fill="none" stroke="black" d="M10.62,-38.66C8.98,-48.62 11.44,-58 18,-58 22.2,-58 24.72,-54.15 25.56,-48.77"/>
<polygon fill="black" stroke="black" points="29.06,-48.6 25.38,-38.66 22.06,-48.72 29.06,-48.6"/>
<text text-anchor="middle" x="18" y="-61.8" font-family="Times,serif" font-size="14.00">a/1</text>
</g>
<!-- 1 -->
<g id="node2" class="node">
<title>1</title>
<ellipse fill="none" stroke="black" cx="106" cy="-22" rx="18" ry="18"/>
<ellipse fill="none" stroke="black" cx="106" cy="-22" rx="22" ry="22"/>
<text text-anchor="middle" x="106" y="-18.3" font-family="Times,serif" font-size="14.00">1</text>
</g>
<!-- 0&#45;&gt;1 -->
<g id="edge2" class="edge">
<title>0&#45;&gt;1</title>
<path fill="none" stroke="black" d="M36.4,-22C47.14,-22 61.22,-22 73.83,-22"/>
<polygon fill="black" stroke="black" points="73.98,-25.5 83.98,-22 73.98,-18.5 73.98,-25.5"/>
<text text-anchor="middle" x="60" y="-25.8" font-family="Times,serif" font-size="14.00">b/2</text>
</g>
<!-- 1&#45;&gt;1 -->
<g id="edge3" class="edge">
<title>1&#45;&gt;1</title>
<path fill="none" stroke="black" d="M97.63,-42.58C96.47,-52.84 99.26,-62 106,-62 110.32,-62 113.01,-58.24 114.09,-52.84"/>
<polygon fill="black" stroke="black" points="117.59,-52.67 114.37,-42.58 110.6,-52.48 117.59,-52.67"/>
<text text-anchor="middle" x="106" y="-65.8" font-family="Times,serif" font-size="14.00">c/3</text>
</g>
</g>
</svg>
