<?xml version="1.0" encoding="UTF-8" standalone="no"?>
<!DOCTYPE svg PUBLIC "-//W3C//DTD SVG 1.1//EN"
 "http://www.w3.org/Graphics/SVG/1.1/DTD/svg11.dtd">
<!-- Generated by graphviz version 2.47.3 (20210619.1520)
 -->
<!-- Title: FST Pages: 1 -->
<svg width="334pt" height="83pt"
 viewBox="0.00 0.00 334.00 83.00" xmlns="http://www.w3.org/2000/svg" xmlns:xlink="http://www.w3.org/1999/xlink">
<g id="graph0" class="graph" transform="scale(1 1) rotate(0) translate(4 79)">
<title>FST</title>
<polygon fill="white" stroke="transparent" points="-4,4 -4,-79 330,-79 330,4 -4,4"/>
<!-- 0 -->
<g id="node1" class="node">
<title>0</title>
<ellipse fill="none" stroke="black" stroke-width="2" cx="18" cy="-22" rx="18" ry="18"/>
<text text-anchor="middle" x="18" y="-18.3" font-family="Times,serif" font-size="14.00">0</text>
</g>
<!-- 1 -->
<g id="node2" class="node">
<title>1</title>
<ellipse fill="none" stroke="black" stroke-width="2" cx="112" cy="-57" rx="18" ry="18"/>
<text text-anchor="middle" x="112" y="-53.3" font-family="Times,serif" font-size="14.00">1</text>
</g>
<!-- 0&#45;&gt;1 -->
<g id="edge1" class="edge">
<title>0&#45;&gt;1</title>
<path fill="none" stroke="black" d="M35.03,-28.1C48.92,-33.38 69.29,-41.13 85.44,-47.27"/>
<polygon fill="black" stroke="black" points="84.26,-50.57 94.85,-50.86 86.75,-44.03 84.26,-50.57"/>
<text text-anchor="middle" x="65" y="-47.8" font-family="Times,serif" font-size="14.00">a/1.1</text>
</g>
<!-- 2 -->
<g id="node3" class="node">
<title>2</title>
<ellipse fill="none" stroke="black" cx="206" cy="-22" rx="18" ry="18"/>
<text text-anchor="middle" x="206" y="-18.3" font-family="Times,serif" font-size="14.00">2</text>
</g>
<!-- 0&#45;&gt;2 -->
<g id="edge2" class="edge">
<title>0&#45;&gt;2</title>
<path fill="none" stroke="black" d="M35.95,-19.96C51.13,-18.25 74.01,-15.93 94,-15 109.98,-14.26 114.02,-14.26 130,-15 145.93,-15.74 163.69,-17.36 177.94,-18.86"/>
<polygon fill="black" stroke="black" points="177.73,-22.36 188.05,-19.96 178.49,-15.4 177.73,-22.36"/>
<text text-anchor="middle" x="112" y="-18.8" font-family="Times,serif" font-size="14.00">b/3.2</text>
</g>
<!-- 1&#45;&gt;2 -->
<g id="edge3" class="edge">
<title>1&#45;&gt;2</title>
<path fill="none" stroke="black" d="M129.03,-50.9C142.92,-45.62 163.29,-37.87 179.44,-31.73"/>
<polygon fill="black" stroke="black" points="180.75,-34.97 188.85,-28.14 178.26,-28.43 180.75,-34.97"/>
<text text-anchor="middle" x="159" y="-47.8" font-family="Times,serif" font-size="14.00">c/1.4</text>
</g>
<!-- 3 -->
<g id="node4" class="node">
<title>3</title>
<ellipse fill="none" stroke="black" stroke-width="2" cx="304" cy="-22" rx="18" ry="18"/>
<ellipse fill="none" stroke="black" stroke-width="2" cx="304" cy="-22" rx="22" ry="22"/>
<text text-anchor="middle" x="304" y="-18.3" font-family="Times,serif" font-size="14.00">3</text>
</g>
<!-- 2&#45;&gt;3 -->
<g id="edge4" class="edge">
<title>2&#45;&gt;3</title>
<path fill="none" stroke="black" d="M224.16,-22C237.31,-22 255.81,-22 271.58,-22"/>
<polygon fill="black" stroke="black" points="271.97,-25.5 281.97,-22 271.97,-18.5 271.97,-25.5"/>
<text text-anchor="middle" x="253" y="-25.8" font-family="Times,serif" font-size="14.00">a/2.1</text>
</g>
</g>
</svg>
