<?xml version="1.0" encoding="UTF-8" standalone="no"?>
<!DOCTYPE svg PUBLIC "-//W3C//DTD SVG 1.1//EN"
 "http://www.w3.org/Graphics/SVG/1.1/DTD/svg11.dtd">
<!-- Generated by graphviz version 2.47.3 (20210619.1520)
 -->
<!-- Title: FST Pages: 1 -->
<svg width="212pt" height="92pt"
 viewBox="0.00 0.00 212.00 91.70" xmlns="http://www.w3.org/2000/svg" xmlns:xlink="http://www.w3.org/1999/xlink">
<g id="graph0" class="graph" transform="scale(1 1) rotate(0) translate(4 87.7)">
<title>FST</title>
<polygon fill="white" stroke="transparent" points="-4,4 -4,-87.7 208,-87.7 208,4 -4,4"/>
<!-- 0 -->
<g id="node1" class="node">
<title>0</title>
<ellipse fill="none" stroke="black" cx="18" cy="-20.7" rx="18" ry="18"/>
<text text-anchor="middle" x="18" y="-17" font-family="Times,serif" font-size="14.00">0</text>
</g>
<!-- 1 -->
<g id="node2" class="node">
<title>1</title>
<ellipse fill="none" stroke="black" cx="102" cy="-65.7" rx="18" ry="18"/>
<text text-anchor="middle" x="102" y="-62" font-family="Times,serif" font-size="14.00">1</text>
</g>
<!-- 0&#45;&gt;1 -->
<g id="edge1" class="edge">
<title>0&#45;&gt;1</title>
<path fill="none" stroke="black" d="M29.45,-34.73C35.13,-41.41 42.68,-48.96 51,-53.7 57.93,-57.65 66.12,-60.31 73.84,-62.09"/>
<polygon fill="black" stroke="black" points="73.43,-65.58 83.91,-64.02 74.75,-58.7 73.43,-65.58"/>
<text text-anchor="middle" x="60" y="-63.5" font-family="Times,serif" font-size="14.00">a</text>
</g>
<!-- 2 -->
<g id="node3" class="node">
<title>2</title>
<ellipse fill="none" stroke="black" cx="186" cy="-20.7" rx="18" ry="18"/>
<text text-anchor="middle" x="186" y="-17" font-family="Times,serif" font-size="14.00">2</text>
</g>
<!-- 0&#45;&gt;2 -->
<g id="edge2" class="edge">
<title>0&#45;&gt;2</title>
<path fill="none" stroke="black" d="M36.14,-20.7C64.84,-20.7 122.87,-20.7 157.39,-20.7"/>
<polygon fill="black" stroke="black" points="157.7,-24.2 167.7,-20.7 157.7,-17.2 157.7,-24.2"/>
<text text-anchor="middle" x="102" y="-24.5" font-family="Times,serif" font-size="14.00">a</text>
</g>
<!-- 1&#45;&gt;0 -->
<g id="edge4" class="edge">
<title>1&#45;&gt;0</title>
<path fill="none" stroke="black" d="M89.74,-52.04C84.08,-45.95 76.78,-39.17 69,-34.7 61.93,-30.64 53.62,-27.71 45.83,-25.6"/>
<polygon fill="black" stroke="black" points="46.56,-22.18 36.03,-23.3 44.96,-28.99 46.56,-22.18"/>
<text text-anchor="middle" x="60" y="-38.5" font-family="Times,serif" font-size="14.00">b</text>
</g>
<!-- 1&#45;&gt;2 -->
<g id="edge3" class="edge">
<title>1&#45;&gt;2</title>
<path fill="none" stroke="black" d="M120.09,-64.02C130.18,-62.45 142.92,-59.45 153,-53.7 158.33,-50.66 163.34,-46.47 167.75,-42.1"/>
<polygon fill="black" stroke="black" points="170.34,-44.45 174.55,-34.73 165.19,-39.71 170.34,-44.45"/>
<text text-anchor="middle" x="144" y="-63.5" font-family="Times,serif" font-size="14.00">b</text>
</g>
<!-- 2&#45;&gt;0 -->
<g id="edge5" class="edge">
<title>2&#45;&gt;0</title>
<path fill="none" stroke="black" d="M168.99,-14.63C156,-10.05 137.11,-4.15 120,-1.7 104.16,0.57 99.84,0.57 84,-1.7 70.77,-3.59 56.47,-7.55 44.66,-11.37"/>
<polygon fill="black" stroke="black" points="43.36,-8.11 35.01,-14.63 45.61,-14.75 43.36,-8.11"/>
<text text-anchor="middle" x="102" y="-5.5" font-family="Times,serif" font-size="14.00">c</text>
</g>
<!-- 2&#45;&gt;1 -->
<g id="edge6" class="edge">
<title>2&#45;&gt;1</title>
<path fill="none" stroke="black" d="M167.97,-23.3C157.9,-25.35 145.16,-28.86 135,-34.7 130.26,-37.42 125.7,-41.01 121.57,-44.77"/>
<polygon fill="black" stroke="black" points="118.89,-42.5 114.26,-52.04 123.82,-47.47 118.89,-42.5"/>
<text text-anchor="middle" x="144" y="-38.5" font-family="Times,serif" font-size="14.00">c</text>
</g>
</g>
</svg>
