<?xml version="1.0" encoding="UTF-8" standalone="no"?>
<!DOCTYPE svg PUBLIC "-//W3C//DTD SVG 1.1//EN"
 "http://www.w3.org/Graphics/SVG/1.1/DTD/svg11.dtd">
<!-- Generated by graphviz version 2.47.3 (20210619.1520)
 -->
<!-- Title: FST Pages: 1 -->
<svg width="219pt" height="52pt"
 viewBox="0.00 0.00 219.00 52.00" xmlns="http://www.w3.org/2000/svg" xmlns:xlink="http://www.w3.org/1999/xlink">
<g id="graph0" class="graph" transform="scale(1 1) rotate(0) translate(4 48)">
<title>FST</title>
<polygon fill="white" stroke="transparent" points="-4,4 -4,-48 215,-48 215,4 -4,4"/>
<!-- 0 -->
<g id="node1" class="node">
<title>0</title>
<ellipse fill="none" stroke="black" stroke-width="2" cx="18" cy="-22" rx="18" ry="18"/>
<text text-anchor="middle" x="18" y="-18.3" font-family="Times,serif" font-size="14.00">0</text>
</g>
<!-- 2 -->
<g id="node2" class="node">
<title>2</title>
<ellipse fill="none" stroke="black" cx="102" cy="-22" rx="18" ry="18"/>
<text text-anchor="middle" x="102" y="-18.3" font-family="Times,serif" font-size="14.00">2</text>
</g>
<!-- 0&#45;&gt;2 -->
<g id="edge1" class="edge">
<title>0&#45;&gt;2</title>
<path fill="none" stroke="black" d="M36.39,-22C47.23,-22 61.4,-22 73.71,-22"/>
<polygon fill="black" stroke="black" points="73.92,-25.5 83.92,-22 73.92,-18.5 73.92,-25.5"/>
<text text-anchor="middle" x="60" y="-25.8" font-family="Times,serif" font-size="14.00">a/0</text>
</g>
<!-- 0&#45;&gt;2 -->
<g id="edge2" class="edge">
<title>0&#45;&gt;2</title>
<path fill="none" stroke="black" d="M32.91,-11.54C38.27,-8.12 44.64,-4.74 51,-3 58.71,-0.88 61.29,-0.88 69,-3 72.08,-3.85 75.16,-5.07 78.13,-6.5"/>
<polygon fill="black" stroke="black" points="76.66,-9.69 87.09,-11.54 80.09,-3.59 76.66,-9.69"/>
<text text-anchor="middle" x="60" y="-6.8" font-family="Times,serif" font-size="14.00">b/0</text>
</g>
<!-- 1 -->
<g id="node3" class="node">
<title>1</title>
<ellipse fill="none" stroke="black" cx="189" cy="-22" rx="18" ry="18"/>
<ellipse fill="none" stroke="black" cx="189" cy="-22" rx="22" ry="22"/>
<text text-anchor="middle" x="189" y="-18.3" font-family="Times,serif" font-size="14.00">1</text>
</g>
<!-- 2&#45;&gt;1 -->
<g id="edge3" class="edge">
<title>2&#45;&gt;1</title>
<path fill="none" stroke="black" d="M120.2,-22C130.63,-22 144.26,-22 156.56,-22"/>
<polygon fill="black" stroke="black" points="156.91,-25.5 166.91,-22 156.91,-18.5 156.91,-25.5"/>
<text text-anchor="middle" x="143.5" y="-25.8" font-family="Times,serif" font-size="14.00">a/2</text>
</g>
</g>
</svg>
