<?xml version="1.0" encoding="UTF-8" standalone="no"?>
<!DOCTYPE svg PUBLIC "-//W3C//DTD SVG 1.1//EN"
 "http://www.w3.org/Graphics/SVG/1.1/DTD/svg11.dtd">
<!-- Generated by graphviz version 2.47.3 (20210619.1520)
 -->
<!-- Title: FST Pages: 1 -->
<svg width="211pt" height="79pt"
 viewBox="0.00 0.00 211.00 79.00" xmlns="http://www.w3.org/2000/svg" xmlns:xlink="http://www.w3.org/1999/xlink">
<g id="graph0" class="graph" transform="scale(1 1) rotate(0) translate(4 75)">
<title>FST</title>
<polygon fill="white" stroke="transparent" points="-4,4 -4,-75 207,-75 207,4 -4,4"/>
<!-- 0 -->
<g id="node1" class="node">
<title>0</title>
<ellipse fill="none" stroke="black" cx="18" cy="-18" rx="18" ry="18"/>
<text text-anchor="middle" x="18" y="-14.3" font-family="Times,serif" font-size="14.00">0</text>
</g>
<!-- 1 -->
<g id="node2" class="node">
<title>1</title>
<ellipse fill="none" stroke="black" cx="101" cy="-53" rx="18" ry="18"/>
<text text-anchor="middle" x="101" y="-49.3" font-family="Times,serif" font-size="14.00">1</text>
</g>
<!-- 0&#45;&gt;1 -->
<g id="edge1" class="edge">
<title>0&#45;&gt;1</title>
<path fill="none" stroke="black" d="M35,-24.91C46.39,-29.84 61.92,-36.55 74.95,-42.17"/>
<polygon fill="black" stroke="black" points="73.74,-45.46 84.31,-46.22 76.51,-39.04 73.74,-45.46"/>
<text text-anchor="middle" x="59.5" y="-41.8" font-family="Times,serif" font-size="14.00">a</text>
</g>
<!-- 2 -->
<g id="node3" class="node">
<title>2</title>
<ellipse fill="none" stroke="black" cx="185" cy="-18" rx="18" ry="18"/>
<text text-anchor="middle" x="185" y="-14.3" font-family="Times,serif" font-size="14.00">2</text>
</g>
<!-- 1&#45;&gt;2 -->
<g id="edge2" class="edge">
<title>1&#45;&gt;2</title>
<path fill="none" stroke="black" d="M117.81,-46.25C129.38,-41.31 145.32,-34.51 158.66,-28.82"/>
<polygon fill="black" stroke="black" points="160.41,-31.87 168.24,-24.73 157.67,-25.43 160.41,-31.87"/>
<text text-anchor="middle" x="143" y="-41.8" font-family="Times,serif" font-size="14.00">b</text>
</g>
<!-- 2&#45;&gt;0 -->
<g id="edge3" class="edge">
<title>2&#45;&gt;0</title>
<path fill="none" stroke="black" d="M166.93,-15.66C153.85,-13.98 135.32,-11.88 119,-11 103.02,-10.14 98.98,-10.13 83,-11 70.91,-11.66 57.58,-13.01 46.24,-14.36"/>
<polygon fill="black" stroke="black" points="45.56,-10.92 36.07,-15.62 46.43,-17.86 45.56,-10.92"/>
<text text-anchor="middle" x="101" y="-14.8" font-family="Times,serif" font-size="14.00">c</text>
</g>
</g>
</svg>
