<?xml version="1.0" encoding="UTF-8" standalone="no"?>
<!DOCTYPE svg PUBLIC "-//W3C//DTD SVG 1.1//EN"
 "http://www.w3.org/Graphics/SVG/1.1/DTD/svg11.dtd">
<!-- Generated by graphviz version 2.47.3 (20210619.1520)
 -->
<!-- Title: FST Pages: 1 -->
<svg width="149pt" height="216pt"
 viewBox="0.00 0.00 149.19 216.19" xmlns="http://www.w3.org/2000/svg" xmlns:xlink="http://www.w3.org/1999/xlink">
<g id="graph0" class="graph" transform="scale(1 1) rotate(0) translate(4 212.19)">
<title>FST</title>
<polygon fill="white" stroke="transparent" points="-4,4 -4,-212.19 145.19,-212.19 145.19,4 -4,4"/>
<!-- 0 -->
<g id="node1" class="node">
<title>0</title>
<ellipse fill="none" stroke="black" cx="28.6" cy="-179.6" rx="28.7" ry="28.7"/>
<text text-anchor="middle" x="28.6" y="-175.9" font-family="Times,serif" font-size="14.00">0/3.1</text>
</g>
<!-- 3 -->
<g id="node2" class="node">
<title>3</title>
<ellipse fill="none" stroke="black" cx="123.19" cy="-104.6" rx="18" ry="18"/>
<text text-anchor="middle" x="123.19" y="-100.9" font-family="Times,serif" font-size="14.00">3</text>
</g>
<!-- 0&#45;&gt;3 -->
<g id="edge1" class="edge">
<title>0&#45;&gt;3</title>
<path fill="none" stroke="black" d="M56.89,-184.72C68.07,-185.37 80.61,-184.09 90.19,-177.6 105.23,-167.41 113.26,-148.48 117.52,-132.45"/>
<polygon fill="black" stroke="black" points="120.99,-132.99 119.8,-122.46 114.16,-131.42 120.99,-132.99"/>
<text text-anchor="middle" x="81.19" y="-187.4" font-family="Times,serif" font-size="14.00">3.5</text>
</g>
<!-- 0&#45;&gt;3 -->
<g id="edge2" class="edge">
<title>0&#45;&gt;3</title>
<path fill="none" stroke="black" d="M51.54,-161.82C66.38,-149.8 85.9,-134 100.65,-122.05"/>
<polygon fill="black" stroke="black" points="103.15,-124.52 108.72,-115.51 98.75,-119.08 103.15,-124.52"/>
<text text-anchor="middle" x="81.19" y="-147.4" font-family="Times,serif" font-size="14.00">1.1</text>
</g>
<!-- 1 -->
<g id="node3" class="node">
<title>1</title>
<ellipse fill="none" stroke="red" cx="28.6" cy="-104.6" rx="28.7" ry="28.7"/>
<text text-anchor="middle" x="28.6" y="-100.9" font-family="Times,serif" font-size="14.00" fill="red">1/2.8</text>
</g>
<!-- 1&#45;&gt;3 -->
<g id="edge3" class="edge">
<title>1&#45;&gt;3</title>
<path fill="none" stroke="red" d="M57.38,-104.6C69.29,-104.6 83.16,-104.6 95,-104.6"/>
<polygon fill="red" stroke="red" points="95.19,-108.1 105.19,-104.6 95.19,-101.1 95.19,-108.1"/>
<text text-anchor="middle" x="81.19" y="-108.4" font-family="Times,serif" font-size="14.00" fill="red">6.1</text>
</g>
<!-- 1&#45;&gt;3 -->
<g id="edge4" class="edge">
<title>1&#45;&gt;3</title>
<path fill="none" stroke="black" d="M53.66,-90.47C64.73,-85.67 78.07,-82.27 90.19,-85.6 93.27,-86.44 96.36,-87.67 99.32,-89.1"/>
<polygon fill="black" stroke="black" points="97.85,-92.29 108.29,-94.14 101.28,-86.18 97.85,-92.29"/>
<text text-anchor="middle" x="81.19" y="-89.4" font-family="Times,serif" font-size="14.00">0.3</text>
</g>
<!-- 2 -->
<g id="node4" class="node">
<title>2</title>
<ellipse fill="none" stroke="black" cx="28.6" cy="-28.6" rx="28.7" ry="28.7"/>
<text text-anchor="middle" x="28.6" y="-24.9" font-family="Times,serif" font-size="14.00">2/4.7</text>
</g>
<!-- 2&#45;&gt;3 -->
<g id="edge5" class="edge">
<title>2&#45;&gt;3</title>
<path fill="none" stroke="black" d="M54.54,-40.76C66.04,-47.01 79.49,-55.28 90.19,-64.6 95.87,-69.54 101.3,-75.59 106.01,-81.47"/>
<polygon fill="black" stroke="black" points="103.52,-83.98 112.36,-89.82 109.09,-79.74 103.52,-83.98"/>
<text text-anchor="middle" x="81.19" y="-68.4" font-family="Times,serif" font-size="14.00">2.8</text>
</g>
<!-- 2&#45;&gt;3 -->
<g id="edge6" class="edge">
<title>2&#45;&gt;3</title>
<path fill="none" stroke="black" d="M56.96,-24.54C68.16,-24.29 80.68,-25.96 90.19,-32.6 104.83,-42.81 112.86,-61.3 117.21,-76.99"/>
<polygon fill="black" stroke="black" points="113.83,-77.88 119.58,-86.78 120.63,-76.24 113.83,-77.88"/>
<text text-anchor="middle" x="81.19" y="-36.4" font-family="Times,serif" font-size="14.00">1.2</text>
</g>
</g>
</svg>
