<svg width="401" height="206" viewBox="0 0 401 206" fill="none" xmlns="http://www.w3.org/2000/svg">
<rect x="0.5" y="0.5" width="400" height="205" rx="19.5" fill="#AAAAAA" fill-opacity="0.2" stroke="black"/>
<path d="M26.674 14.144L26.548 11.084H16.432L16.306 14.144H16.738C17.098 12.164 17.584 11.84 19.492 11.84H20.572V20.786C20.572 22.37 20.374 22.568 18.88 22.658V23H24.136V22.658C22.66 22.586 22.408 22.37 22.408 21.002V11.84H23.47C25.378 11.84 25.846 12.164 26.242 14.144H26.674ZM29.4445 14.756L29.3545 14.72C28.4005 15.098 27.7525 15.35 26.6905 15.692V15.98C26.9425 15.926 27.1045 15.908 27.3205 15.908C27.7705 15.908 27.9325 16.196 27.9325 16.988V21.488C27.9325 22.388 27.8065 22.514 26.6545 22.73V23H30.9745V22.73C29.7505 22.676 29.4445 22.406 29.4445 21.38V17.33C29.4445 16.754 30.2005 15.854 30.7045 15.854C30.8125 15.854 30.9745 15.944 31.1725 16.124C31.4605 16.394 31.6585 16.484 31.8925 16.484C32.3245 16.484 32.5945 16.178 32.5945 15.674C32.5945 15.08 32.2165 14.72 31.6045 14.72C30.8485 14.72 30.3445 15.116 29.4445 16.412V14.756ZM40.4794 21.812C40.1734 22.064 39.9934 22.154 39.7054 22.154C39.3814 22.154 39.1474 21.794 39.1474 20.966V17.528C39.1474 16.43 39.0754 16.052 38.6434 15.53C38.2114 15.008 37.5274 14.72 36.5194 14.72C35.7094 14.72 34.9534 14.936 34.4494 15.26C33.8194 15.656 33.5314 16.232 33.5314 16.7C33.5314 17.186 33.9274 17.528 34.3054 17.528C34.7734 17.528 35.1334 17.132 35.1334 16.79C35.1334 16.412 35.0254 16.358 35.0254 16.034C35.0254 15.548 35.5654 15.152 36.2854 15.152C37.0954 15.152 37.6894 15.656 37.6894 16.772V17.744C35.6554 18.5 34.9894 18.842 34.4494 19.202C33.7474 19.67 33.1894 20.372 33.1894 21.308C33.1894 22.496 33.9634 23.18 35.0794 23.18C35.8534 23.18 36.7354 22.946 37.6894 21.866H37.7074C37.7974 22.82 38.1934 23.18 38.8594 23.18C39.4714 23.18 39.9394 23 40.4794 22.316V21.812ZM37.6894 20.714C37.6894 21.236 37.5814 21.488 37.0594 21.848C36.7534 22.046 36.3754 22.136 36.0154 22.136C35.3134 22.136 34.7734 21.704 34.7734 20.75C34.7734 20.192 34.9534 19.76 35.3854 19.364C35.8354 18.95 36.5734 18.572 37.6894 18.176V20.714ZM49.2515 23V22.73C48.3695 22.64 48.1535 22.442 48.1535 21.47V17.492C48.1535 15.71 47.3975 14.72 46.0295 14.72C45.2015 14.72 44.3735 15.116 43.4375 16.178H43.4195V14.774L43.2755 14.72C42.3935 15.044 41.7995 15.242 40.8095 15.53V15.836C40.9355 15.782 41.1335 15.764 41.3315 15.764C41.8355 15.764 41.9615 16.052 41.9615 16.934V21.308C41.9615 22.37 41.7635 22.658 40.8455 22.73V23H44.6435V22.73C43.7255 22.658 43.4735 22.406 43.4735 21.704V16.736C44.3015 15.926 44.7335 15.71 45.3275 15.71C46.2095 15.71 46.6415 16.25 46.6415 17.528V21.11C46.6415 22.298 46.4255 22.658 45.5255 22.73L45.5075 23H49.2515ZM52.3295 17.582C51.8255 17.276 51.5555 16.754 51.5555 16.358C51.5555 15.512 52.1315 15.134 52.9055 15.134C53.9855 15.134 54.5255 15.728 54.9395 17.348H55.2095L55.1195 14.9H54.9215C54.7775 15.062 54.7055 15.08 54.6335 15.08C54.5075 15.08 54.3275 15.026 54.1295 14.936C53.7515 14.756 53.3555 14.738 52.9235 14.738C51.4475 14.738 50.4395 15.53 50.4395 16.952C50.4395 17.87 51.1055 18.734 52.5995 19.562L53.5715 20.102C54.1655 20.426 54.5255 20.894 54.5255 21.452C54.5255 22.19 53.9495 22.784 53.0315 22.784C51.7895 22.784 51.1235 21.992 50.7455 20.246H50.4575V23.072H50.6915C50.7995 22.892 50.9075 22.856 51.1235 22.856C51.3215 22.856 51.5195 22.874 51.9515 23.018C52.3655 23.162 52.8875 23.18 53.2655 23.18C54.6335 23.18 55.7855 22.136 55.7855 20.93C55.7855 19.904 55.3535 19.418 54.2015 18.716L52.3295 17.582ZM65.3556 22.244V21.956C65.0496 21.974 65.0316 21.974 64.9416 21.974C64.2936 21.974 64.1496 21.776 64.1496 20.948V10.742L64.0596 10.706C63.1956 11.012 62.5656 11.192 61.4136 11.498V11.786C61.5576 11.768 61.6656 11.768 61.8096 11.768C62.4756 11.768 62.6376 11.948 62.6376 12.686V15.494C61.9536 14.918 61.4676 14.72 60.7476 14.72C58.6776 14.72 57.0036 16.754 57.0036 19.31C57.0036 21.614 58.3356 23.18 60.3336 23.18C61.3416 23.18 62.0256 22.82 62.6376 21.974V23.126L62.7096 23.18L65.3556 22.244ZM62.6376 21.164C62.6376 21.29 62.5296 21.488 62.3676 21.668C62.0436 22.046 61.5936 22.244 61.0356 22.244C59.5236 22.244 58.5516 20.804 58.5516 18.59C58.5516 16.556 59.4336 15.224 60.8016 15.224C61.7736 15.224 62.6376 16.07 62.6376 17.024V21.164ZM74.1576 22.1H74.0496C73.2216 22.1 73.0236 21.902 73.0236 21.074V14.9H70.1796V15.206C71.2596 15.278 71.5116 15.422 71.5116 16.376V20.534C71.5116 21.164 71.3856 21.326 71.0976 21.578C70.6476 21.974 70.1076 22.136 69.5856 22.136C68.8836 22.136 68.3076 21.542 68.3076 20.714V14.9H65.6796V15.152C66.5436 15.206 66.7956 15.458 66.7956 16.358V20.876C66.7956 22.262 67.6056 23.18 68.9916 23.18C69.6576 23.18 70.6836 22.838 71.5656 21.632H71.6016V23.108L71.6916 23.162C72.5916 22.802 73.2396 22.604 74.1576 22.352V22.1ZM81.6816 20.192C80.8176 21.452 80.1696 21.884 79.1436 21.884C77.4876 21.884 76.3536 20.444 76.3536 18.374C76.3536 16.502 77.3436 15.242 78.8016 15.242C79.4496 15.242 79.6836 15.44 79.8636 16.106L79.9716 16.502C80.1156 17.024 80.4396 17.33 80.8356 17.33C81.3036 17.33 81.6816 16.988 81.6816 16.574C81.6816 15.566 80.4216 14.72 78.9096 14.72C78.0636 14.72 77.1996 15.044 76.4796 15.638C75.5076 16.448 74.9676 17.69 74.9676 19.184C74.9676 21.506 76.3896 23.18 78.3876 23.18C79.1616 23.18 79.8456 22.928 80.4576 22.424C80.9976 21.992 81.3576 21.47 81.9336 20.354L81.6816 20.192ZM89.8596 20.048C88.9776 21.38 88.2936 21.938 87.0876 21.938C86.2596 21.938 85.5936 21.614 85.0896 20.948C84.4416 20.084 84.3516 19.382 84.2616 18.014H89.8056C89.7336 17.042 89.5536 16.466 89.1936 15.962C88.6176 15.152 87.8076 14.72 86.6916 14.72C84.4236 14.72 82.9656 16.556 82.9656 19.094C82.9656 21.578 84.2616 23.18 86.3856 23.18C88.1856 23.18 89.4456 22.136 90.1476 20.174L89.8596 20.048ZM84.2976 17.438C84.4956 16.088 85.1976 15.368 86.2056 15.368C87.3936 15.368 87.7716 15.98 87.9696 17.438H84.2976ZM93.3937 14.756L93.3037 14.72C92.3497 15.098 91.7017 15.35 90.6397 15.692V15.98C90.8917 15.926 91.0537 15.908 91.2697 15.908C91.7197 15.908 91.8817 16.196 91.8817 16.988V21.488C91.8817 22.388 91.7557 22.514 90.6037 22.73V23H94.9237V22.73C93.6997 22.676 93.3937 22.406 93.3937 21.38V17.33C93.3937 16.754 94.1497 15.854 94.6537 15.854C94.7617 15.854 94.9237 15.944 95.1217 16.124C95.4097 16.394 95.6077 16.484 95.8417 16.484C96.2737 16.484 96.5437 16.178 96.5437 15.674C96.5437 15.08 96.1657 14.72 95.5537 14.72C94.7977 14.72 94.2937 15.116 93.3937 16.412V14.756ZM106.48 25.898C103.96 23.792 103.42 21.758 103.42 18.41C103.42 14.936 103.978 13.262 106.48 11.12L106.318 10.832C103.438 12.542 101.872 15.134 101.872 18.464C101.872 21.524 103.42 24.566 106.264 26.186L106.48 25.898ZM119.494 14.9H117.28V15.17C117.892 15.296 118.072 15.422 118.072 15.71C118.072 15.998 117.964 16.43 117.766 16.916L116.146 20.912L114.634 16.88C114.418 16.322 114.328 16.106 114.328 15.8C114.328 15.422 114.526 15.296 115.372 15.17V14.9H111.718V15.17C112.384 15.242 112.618 15.44 112.96 16.412L113.32 17.42L111.682 21.002L109.9 16.304C109.828 16.124 109.792 15.944 109.792 15.764C109.792 15.386 109.99 15.242 110.62 15.17V14.9H107.38V15.17C107.794 15.206 107.956 15.332 108.334 16.304L110.764 22.46C110.98 23.018 111.124 23.252 111.232 23.252C111.322 23.252 111.466 23.018 111.682 22.55L113.698 18.23L115.336 22.478C115.606 23.162 115.642 23.252 115.768 23.252C115.894 23.252 115.984 23.09 116.272 22.37L118.756 16.142C119.044 15.422 119.134 15.296 119.494 15.17V14.9ZM127.02 20.048C126.138 21.38 125.454 21.938 124.248 21.938C123.42 21.938 122.754 21.614 122.25 20.948C121.602 20.084 121.512 19.382 121.422 18.014H126.966C126.894 17.042 126.714 16.466 126.354 15.962C125.778 15.152 124.968 14.72 123.852 14.72C121.584 14.72 120.126 16.556 120.126 19.094C120.126 21.578 121.422 23.18 123.546 23.18C125.346 23.18 126.606 22.136 127.308 20.174L127.02 20.048ZM121.458 17.438C121.656 16.088 122.358 15.368 123.366 15.368C124.554 15.368 124.932 15.98 125.13 17.438H121.458ZM130.914 11.624C130.914 11.12 130.518 10.706 129.996 10.706C129.492 10.706 129.078 11.12 129.078 11.624C129.078 12.146 129.474 12.542 129.978 12.542C130.518 12.542 130.914 12.146 130.914 11.624ZM132.228 23V22.73C131.04 22.64 130.896 22.442 130.896 21.11V14.792L130.824 14.72L128.034 15.71V15.998C128.358 15.908 128.628 15.908 128.79 15.908C129.24 15.908 129.384 16.196 129.384 17.042V21.128C129.384 22.496 129.204 22.658 127.962 22.73V23H132.228ZM141.144 16.016V15.314H139.758C139.398 15.314 139.128 15.26 138.768 15.134L138.372 14.99C137.886 14.81 137.4 14.72 136.932 14.72C135.258 14.72 133.926 16.016 133.926 17.654C133.926 18.788 134.394 19.472 135.6 20.066C135.348 20.318 135.096 20.552 134.826 20.786C134.232 21.308 133.998 21.668 133.998 22.028C133.998 22.424 134.196 22.622 134.952 22.982C133.656 23.918 133.188 24.512 133.188 25.178C133.188 26.132 134.574 26.924 136.302 26.924C137.598 26.924 138.966 26.492 139.902 25.772C140.64 25.196 140.982 24.602 140.982 23.882C140.982 22.766 140.136 22.01 138.804 21.956L136.482 21.848C135.51 21.794 135.078 21.65 135.078 21.362C135.078 21.002 135.672 20.372 136.158 20.228L136.5 20.264C136.824 20.3 137.076 20.318 137.184 20.318C137.814 20.318 138.48 20.048 139.056 19.616C139.704 19.13 139.992 18.464 139.992 17.528C139.992 17.006 139.902 16.592 139.65 16.016H141.144ZM135.42 16.916C135.42 15.854 135.924 15.224 136.752 15.224C137.31 15.224 137.778 15.53 138.066 16.07C138.408 16.7 138.606 17.51 138.606 18.248C138.606 19.238 138.084 19.868 137.274 19.868C136.158 19.868 135.42 18.698 135.42 16.97V16.916ZM140.478 24.152C140.478 25.196 139.11 25.898 137.058 25.898C135.474 25.898 134.448 25.376 134.448 24.584C134.448 24.17 134.61 23.9 135.33 23.036C135.942 23.162 137.364 23.27 138.246 23.27C139.884 23.27 140.478 23.486 140.478 24.152ZM150.45 23V22.73C149.478 22.55 149.37 22.406 149.37 21.164V17.582C149.37 15.692 148.632 14.72 147.156 14.72C146.094 14.72 145.338 15.152 144.51 16.232V10.76L144.42 10.706C143.79 10.922 143.376 11.048 142.35 11.354L141.864 11.498V11.786C141.918 11.768 142.008 11.768 142.08 11.768C142.854 11.768 142.998 11.912 142.998 12.686V21.164C142.998 22.424 142.89 22.586 141.846 22.73V23H145.734V22.73C144.69 22.622 144.51 22.406 144.51 21.164V16.826C145.266 15.998 145.806 15.692 146.526 15.692C147.408 15.692 147.858 16.34 147.858 17.6V21.164C147.858 22.406 147.678 22.622 146.634 22.73V23H150.45ZM155.472 21.614C155.076 22.082 154.788 22.244 154.392 22.244C153.726 22.244 153.456 21.776 153.456 20.624V15.476H155.274V14.9H153.456V12.812C153.456 12.632 153.42 12.578 153.33 12.578C153.222 12.758 153.078 12.92 152.97 13.082C152.286 14.072 151.692 14.738 151.224 15.008C151.026 15.134 150.918 15.242 150.918 15.35C150.918 15.404 150.936 15.44 150.99 15.476H151.944V20.894C151.944 22.406 152.484 23.18 153.528 23.18C154.428 23.18 155.112 22.748 155.706 21.812L155.472 21.614ZM163.037 20.048C162.155 21.38 161.471 21.938 160.265 21.938C159.437 21.938 158.771 21.614 158.267 20.948C157.619 20.084 157.529 19.382 157.439 18.014H162.983C162.911 17.042 162.731 16.466 162.371 15.962C161.795 15.152 160.985 14.72 159.869 14.72C157.601 14.72 156.143 16.556 156.143 19.094C156.143 21.578 157.439 23.18 159.563 23.18C161.363 23.18 162.623 22.136 163.325 20.174L163.037 20.048ZM157.475 17.438C157.673 16.088 158.375 15.368 159.383 15.368C160.571 15.368 160.949 15.98 161.147 17.438H157.475ZM172.529 22.244V21.956C172.223 21.974 172.205 21.974 172.115 21.974C171.467 21.974 171.323 21.776 171.323 20.948V10.742L171.233 10.706C170.369 11.012 169.739 11.192 168.587 11.498V11.786C168.731 11.768 168.839 11.768 168.983 11.768C169.649 11.768 169.811 11.948 169.811 12.686V15.494C169.127 14.918 168.641 14.72 167.921 14.72C165.851 14.72 164.177 16.754 164.177 19.31C164.177 21.614 165.509 23.18 167.507 23.18C168.515 23.18 169.199 22.82 169.811 21.974V23.126L169.883 23.18L172.529 22.244ZM169.811 21.164C169.811 21.29 169.703 21.488 169.541 21.668C169.217 22.046 168.767 22.244 168.209 22.244C166.697 22.244 165.725 20.804 165.725 18.59C165.725 16.556 166.607 15.224 167.975 15.224C168.947 15.224 169.811 16.07 169.811 17.024V21.164ZM173.213 11.12C175.823 13.172 176.273 15.242 176.273 18.608C176.273 22.1 175.769 23.792 173.213 25.898L173.375 26.186C176.237 24.44 177.821 21.884 177.821 18.554C177.821 15.494 176.183 12.488 173.429 10.832L173.213 11.12Z" fill="black"/>
<rect x="35.5" y="43.5" width="358" height="155" rx="19.5" fill="#AAAAAA" fill-opacity="0.5" stroke="black"/>
<path d="M63.726 66V65.658C62.79 65.55 62.538 65.172 62.034 64.002L57.606 53.868H57.246L53.538 62.652C52.476 65.172 52.314 65.55 51.27 65.658V66H54.852V65.658C53.988 65.658 53.592 65.478 53.592 64.92C53.592 64.704 53.664 64.398 53.754 64.164L54.582 62.112H59.298L60.036 63.804C60.252 64.308 60.378 64.794 60.378 65.064C60.378 65.226 60.27 65.424 60.126 65.496C59.91 65.622 59.784 65.658 59.136 65.658V66H63.726ZM59.046 61.374H54.888L56.958 56.424L59.046 61.374ZM70.9785 63.192C70.1145 64.452 69.4665 64.884 68.4405 64.884C66.7845 64.884 65.6505 63.444 65.6505 61.374C65.6505 59.502 66.6405 58.242 68.0985 58.242C68.7465 58.242 68.9805 58.44 69.1605 59.106L69.2685 59.502C69.4125 60.024 69.7365 60.33 70.1325 60.33C70.6005 60.33 70.9785 59.988 70.9785 59.574C70.9785 58.566 69.7185 57.72 68.2065 57.72C67.3605 57.72 66.4965 58.044 65.7765 58.638C64.8045 59.448 64.2645 60.69 64.2645 62.184C64.2645 64.506 65.6865 66.18 67.6845 66.18C68.4585 66.18 69.1425 65.928 69.7545 65.424C70.2945 64.992 70.6545 64.47 71.2305 63.354L70.9785 63.192ZM78.9765 63.192C78.1125 64.452 77.4645 64.884 76.4385 64.884C74.7825 64.884 73.6485 63.444 73.6485 61.374C73.6485 59.502 74.6385 58.242 76.0965 58.242C76.7445 58.242 76.9785 58.44 77.1585 59.106L77.2665 59.502C77.4105 60.024 77.7345 60.33 78.1305 60.33C78.5985 60.33 78.9765 59.988 78.9765 59.574C78.9765 58.566 77.7165 57.72 76.2045 57.72C75.3585 57.72 74.4945 58.044 73.7745 58.638C72.8025 59.448 72.2625 60.69 72.2625 62.184C72.2625 64.506 73.6845 66.18 75.6825 66.18C76.4565 66.18 77.1405 65.928 77.7525 65.424C78.2925 64.992 78.6525 64.47 79.2285 63.354L78.9765 63.192ZM87.1545 63.048C86.2725 64.38 85.5885 64.938 84.3825 64.938C83.5545 64.938 82.8885 64.614 82.3845 63.948C81.7365 63.084 81.6465 62.382 81.5565 61.014H87.1005C87.0285 60.042 86.8485 59.466 86.4885 58.962C85.9125 58.152 85.1025 57.72 83.9865 57.72C81.7185 57.72 80.2605 59.556 80.2605 62.094C80.2605 64.578 81.5565 66.18 83.6805 66.18C85.4805 66.18 86.7405 65.136 87.4425 63.174L87.1545 63.048ZM81.5925 60.438C81.7905 59.088 82.4925 58.368 83.5005 58.368C84.6885 58.368 85.0665 58.98 85.2645 60.438H81.5925ZM90.6706 57.756L90.5626 57.72C89.6086 58.098 88.9606 58.332 87.9706 58.638V58.926C88.1326 58.908 88.2586 58.908 88.4206 58.908C89.0326 58.908 89.1586 59.088 89.1586 59.934V68.358C89.1586 69.294 88.9606 69.492 87.8986 69.6V69.906H92.2546V69.582C90.9046 69.564 90.6706 69.366 90.6706 68.232V65.406C91.3186 66 91.7326 66.18 92.4886 66.18C94.6306 66.18 96.2686 64.164 96.2686 61.554C96.2686 59.322 95.0086 57.72 93.2626 57.72C92.2546 57.72 91.4626 58.152 90.6706 59.142V57.756ZM90.6706 59.988C90.6706 59.448 91.6786 58.8 92.5066 58.8C93.8386 58.8 94.7206 60.168 94.7206 62.274C94.7206 64.254 93.8386 65.604 92.5426 65.604C91.6966 65.604 90.6706 64.956 90.6706 64.416V59.988ZM101.579 64.614C101.183 65.082 100.895 65.244 100.499 65.244C99.833 65.244 99.563 64.776 99.563 63.624V58.476H101.381V57.9H99.563V55.812C99.563 55.632 99.527 55.578 99.437 55.578C99.329 55.758 99.185 55.92 99.077 56.082C98.393 57.072 97.799 57.738 97.331 58.008C97.133 58.134 97.025 58.242 97.025 58.35C97.025 58.404 97.043 58.44 97.097 58.476H98.051V63.894C98.051 65.406 98.591 66.18 99.635 66.18C100.535 66.18 101.219 65.748 101.813 64.812L101.579 64.614ZM110.226 61.842C110.226 59.358 108.534 57.72 106.338 57.72C103.908 57.72 102.288 59.394 102.288 61.896C102.288 64.398 103.998 66.18 106.176 66.18C108.606 66.18 110.226 64.344 110.226 61.842ZM108.606 62.328C108.606 64.416 107.814 65.676 106.482 65.676C105.834 65.676 105.258 65.352 104.862 64.776C104.196 63.804 103.908 62.508 103.908 61.086C103.908 59.286 104.754 58.224 105.996 58.224C106.77 58.224 107.274 58.584 107.706 59.124C108.282 59.862 108.606 61.104 108.606 62.328ZM113.646 57.756L113.556 57.72C112.602 58.098 111.954 58.35 110.892 58.692V58.98C111.144 58.926 111.306 58.908 111.522 58.908C111.972 58.908 112.134 59.196 112.134 59.988V64.488C112.134 65.388 112.008 65.514 110.856 65.73V66H115.176V65.73C113.952 65.676 113.646 65.406 113.646 64.38V60.33C113.646 59.754 114.402 58.854 114.906 58.854C115.014 58.854 115.176 58.944 115.374 59.124C115.662 59.394 115.86 59.484 116.094 59.484C116.526 59.484 116.796 59.178 116.796 58.674C116.796 58.08 116.418 57.72 115.806 57.72C115.05 57.72 114.546 58.116 113.646 59.412V57.756ZM126.732 68.898C124.212 66.792 123.672 64.758 123.672 61.41C123.672 57.936 124.23 56.262 126.732 54.12L126.57 53.832C123.69 55.542 122.124 58.134 122.124 61.464C122.124 64.524 123.672 67.566 126.516 69.186L126.732 68.898ZM139.746 57.9H137.532V58.17C138.144 58.296 138.324 58.422 138.324 58.71C138.324 58.998 138.216 59.43 138.018 59.916L136.398 63.912L134.886 59.88C134.67 59.322 134.58 59.106 134.58 58.8C134.58 58.422 134.778 58.296 135.624 58.17V57.9H131.97V58.17C132.636 58.242 132.87 58.44 133.212 59.412L133.572 60.42L131.934 64.002L130.152 59.304C130.08 59.124 130.044 58.944 130.044 58.764C130.044 58.386 130.242 58.242 130.872 58.17V57.9H127.632V58.17C128.046 58.206 128.208 58.332 128.586 59.304L131.016 65.46C131.232 66.018 131.376 66.252 131.484 66.252C131.574 66.252 131.718 66.018 131.934 65.55L133.95 61.23L135.588 65.478C135.858 66.162 135.894 66.252 136.02 66.252C136.146 66.252 136.236 66.09 136.524 65.37L139.008 59.142C139.296 58.422 139.386 58.296 139.746 58.17V57.9ZM147.272 63.048C146.39 64.38 145.706 64.938 144.5 64.938C143.672 64.938 143.006 64.614 142.502 63.948C141.854 63.084 141.764 62.382 141.674 61.014H147.218C147.146 60.042 146.966 59.466 146.606 58.962C146.03 58.152 145.22 57.72 144.104 57.72C141.836 57.72 140.378 59.556 140.378 62.094C140.378 64.578 141.674 66.18 143.798 66.18C145.598 66.18 146.858 65.136 147.56 63.174L147.272 63.048ZM141.71 60.438C141.908 59.088 142.61 58.368 143.618 58.368C144.806 58.368 145.184 58.98 145.382 60.438H141.71ZM151.166 54.624C151.166 54.12 150.77 53.706 150.248 53.706C149.744 53.706 149.33 54.12 149.33 54.624C149.33 55.146 149.726 55.542 150.23 55.542C150.77 55.542 151.166 55.146 151.166 54.624ZM152.48 66V65.73C151.292 65.64 151.148 65.442 151.148 64.11V57.792L151.076 57.72L148.286 58.71V58.998C148.61 58.908 148.88 58.908 149.042 58.908C149.492 58.908 149.636 59.196 149.636 60.042V64.128C149.636 65.496 149.456 65.658 148.214 65.73V66H152.48ZM161.396 59.016V58.314H160.01C159.65 58.314 159.38 58.26 159.02 58.134L158.624 57.99C158.138 57.81 157.652 57.72 157.184 57.72C155.51 57.72 154.178 59.016 154.178 60.654C154.178 61.788 154.646 62.472 155.852 63.066C155.6 63.318 155.348 63.552 155.078 63.786C154.484 64.308 154.25 64.668 154.25 65.028C154.25 65.424 154.448 65.622 155.204 65.982C153.908 66.918 153.44 67.512 153.44 68.178C153.44 69.132 154.826 69.924 156.554 69.924C157.85 69.924 159.218 69.492 160.154 68.772C160.892 68.196 161.234 67.602 161.234 66.882C161.234 65.766 160.388 65.01 159.056 64.956L156.734 64.848C155.762 64.794 155.33 64.65 155.33 64.362C155.33 64.002 155.924 63.372 156.41 63.228L156.752 63.264C157.076 63.3 157.328 63.318 157.436 63.318C158.066 63.318 158.732 63.048 159.308 62.616C159.956 62.13 160.244 61.464 160.244 60.528C160.244 60.006 160.154 59.592 159.902 59.016H161.396ZM155.672 59.916C155.672 58.854 156.176 58.224 157.004 58.224C157.562 58.224 158.03 58.53 158.318 59.07C158.66 59.7 158.858 60.51 158.858 61.248C158.858 62.238 158.336 62.868 157.526 62.868C156.41 62.868 155.672 61.698 155.672 59.97V59.916ZM160.73 67.152C160.73 68.196 159.362 68.898 157.31 68.898C155.726 68.898 154.7 68.376 154.7 67.584C154.7 67.17 154.862 66.9 155.582 66.036C156.194 66.162 157.616 66.27 158.498 66.27C160.136 66.27 160.73 66.486 160.73 67.152ZM170.702 66V65.73C169.73 65.55 169.622 65.406 169.622 64.164V60.582C169.622 58.692 168.884 57.72 167.408 57.72C166.346 57.72 165.59 58.152 164.762 59.232V53.76L164.672 53.706C164.042 53.922 163.628 54.048 162.602 54.354L162.116 54.498V54.786C162.17 54.768 162.26 54.768 162.332 54.768C163.106 54.768 163.25 54.912 163.25 55.686V64.164C163.25 65.424 163.142 65.586 162.098 65.73V66H165.986V65.73C164.942 65.622 164.762 65.406 164.762 64.164V59.826C165.518 58.998 166.058 58.692 166.778 58.692C167.66 58.692 168.11 59.34 168.11 60.6V64.164C168.11 65.406 167.93 65.622 166.886 65.73V66H170.702ZM175.724 64.614C175.328 65.082 175.04 65.244 174.644 65.244C173.978 65.244 173.708 64.776 173.708 63.624V58.476H175.526V57.9H173.708V55.812C173.708 55.632 173.672 55.578 173.582 55.578C173.474 55.758 173.33 55.92 173.222 56.082C172.538 57.072 171.944 57.738 171.476 58.008C171.278 58.134 171.17 58.242 171.17 58.35C171.17 58.404 171.188 58.44 171.242 58.476H172.196V63.894C172.196 65.406 172.736 66.18 173.78 66.18C174.68 66.18 175.364 65.748 175.958 64.812L175.724 64.614ZM183.289 63.048C182.407 64.38 181.723 64.938 180.517 64.938C179.689 64.938 179.023 64.614 178.519 63.948C177.871 63.084 177.781 62.382 177.691 61.014H183.235C183.163 60.042 182.983 59.466 182.623 58.962C182.047 58.152 181.237 57.72 180.121 57.72C177.853 57.72 176.395 59.556 176.395 62.094C176.395 64.578 177.691 66.18 179.815 66.18C181.615 66.18 182.875 65.136 183.577 63.174L183.289 63.048ZM177.727 60.438C177.925 59.088 178.627 58.368 179.635 58.368C180.823 58.368 181.201 58.98 181.399 60.438H177.727ZM192.781 65.244V64.956C192.475 64.974 192.457 64.974 192.367 64.974C191.719 64.974 191.575 64.776 191.575 63.948V53.742L191.485 53.706C190.621 54.012 189.991 54.192 188.839 54.498V54.786C188.983 54.768 189.091 54.768 189.235 54.768C189.901 54.768 190.063 54.948 190.063 55.686V58.494C189.379 57.918 188.893 57.72 188.173 57.72C186.103 57.72 184.429 59.754 184.429 62.31C184.429 64.614 185.761 66.18 187.759 66.18C188.767 66.18 189.451 65.82 190.063 64.974V66.126L190.135 66.18L192.781 65.244ZM190.063 64.164C190.063 64.29 189.955 64.488 189.793 64.668C189.469 65.046 189.019 65.244 188.461 65.244C186.949 65.244 185.977 63.804 185.977 61.59C185.977 59.556 186.859 58.224 188.227 58.224C189.199 58.224 190.063 59.07 190.063 60.024V64.164ZM193.465 54.12C196.075 56.172 196.525 58.242 196.525 61.608C196.525 65.1 196.021 66.792 193.465 68.898L193.627 69.186C196.489 67.44 198.073 64.884 198.073 61.554C198.073 58.494 196.435 55.488 193.681 53.832L193.465 54.12Z" fill="black"/>
<rect x="77.5" y="89.5" width="309" height="102" rx="19.5" fill="#AAAAAA" stroke="black"/>
<path d="M102.726 115V114.658C101.79 114.55 101.538 114.172 101.034 113.002L96.606 102.868H96.246L92.538 111.652C91.476 114.172 91.314 114.55 90.27 114.658V115H93.852V114.658C92.988 114.658 92.592 114.478 92.592 113.92C92.592 113.704 92.664 113.398 92.754 113.164L93.582 111.112H98.298L99.036 112.804C99.252 113.308 99.378 113.794 99.378 114.064C99.378 114.226 99.27 114.424 99.126 114.496C98.91 114.622 98.784 114.658 98.136 114.658V115H102.726ZM98.046 110.374H93.888L95.958 105.424L98.046 110.374ZM111.384 114.1H111.276C110.448 114.1 110.25 113.902 110.25 113.074V106.9H107.406V107.206C108.486 107.278 108.738 107.422 108.738 108.376V112.534C108.738 113.164 108.612 113.326 108.324 113.578C107.874 113.974 107.334 114.136 106.812 114.136C106.11 114.136 105.534 113.542 105.534 112.714V106.9H102.906V107.152C103.77 107.206 104.022 107.458 104.022 108.358V112.876C104.022 114.262 104.832 115.18 106.218 115.18C106.884 115.18 107.91 114.838 108.792 113.632H108.828V115.108L108.918 115.162C109.818 114.802 110.466 114.604 111.384 114.352V114.1ZM116.532 113.614C116.136 114.082 115.848 114.244 115.452 114.244C114.786 114.244 114.516 113.776 114.516 112.624V107.476H116.334V106.9H114.516V104.812C114.516 104.632 114.48 104.578 114.39 104.578C114.282 104.758 114.138 104.92 114.03 105.082C113.346 106.072 112.752 106.738 112.284 107.008C112.086 107.134 111.978 107.242 111.978 107.35C111.978 107.404 111.996 107.44 112.05 107.476H113.004V112.894C113.004 114.406 113.544 115.18 114.588 115.18C115.488 115.18 116.172 114.748 116.766 113.812L116.532 113.614ZM125.179 110.842C125.179 108.358 123.487 106.72 121.291 106.72C118.861 106.72 117.241 108.394 117.241 110.896C117.241 113.398 118.951 115.18 121.129 115.18C123.559 115.18 125.179 113.344 125.179 110.842ZM123.559 111.328C123.559 113.416 122.767 114.676 121.435 114.676C120.787 114.676 120.211 114.352 119.815 113.776C119.149 112.804 118.861 111.508 118.861 110.086C118.861 108.286 119.707 107.224 120.949 107.224C121.723 107.224 122.227 107.584 122.659 108.124C123.235 108.862 123.559 110.104 123.559 111.328ZM139.669 115V114.73L139.201 114.694C138.661 114.658 138.427 114.424 138.427 113.614V109.96C138.427 107.836 137.797 106.72 136.339 106.72C135.295 106.72 134.377 107.188 133.405 108.232C133.081 107.206 132.469 106.72 131.497 106.72C130.687 106.72 129.931 106.882 128.743 108.106H128.707V106.774L128.563 106.72C127.645 107.062 127.051 107.26 126.061 107.53V107.836C126.295 107.782 126.439 107.764 126.637 107.764C127.105 107.764 127.267 108.07 127.267 108.952V113.416C127.267 114.46 127.015 114.712 126.007 114.73V115H130.003V114.73C129.049 114.694 128.779 114.514 128.779 113.74V108.736C128.779 108.7 128.887 108.574 129.013 108.43C129.373 107.998 130.255 107.656 130.921 107.656C131.695 107.656 132.091 108.412 132.091 109.654V113.452C132.091 114.55 131.893 114.658 130.867 114.73V115H134.899V114.73C133.873 114.712 133.603 114.46 133.603 113.29V108.754C134.143 107.98 134.683 107.656 135.529 107.656C136.555 107.656 136.915 108.25 136.915 109.672V113.38C136.915 114.424 136.753 114.622 135.745 114.73V115H139.669ZM147.685 113.812C147.379 114.064 147.199 114.154 146.911 114.154C146.587 114.154 146.353 113.794 146.353 112.966V109.528C146.353 108.43 146.281 108.052 145.849 107.53C145.417 107.008 144.733 106.72 143.725 106.72C142.915 106.72 142.159 106.936 141.655 107.26C141.025 107.656 140.737 108.232 140.737 108.7C140.737 109.186 141.133 109.528 141.511 109.528C141.979 109.528 142.339 109.132 142.339 108.79C142.339 108.412 142.231 108.358 142.231 108.034C142.231 107.548 142.771 107.152 143.491 107.152C144.301 107.152 144.895 107.656 144.895 108.772V109.744C142.861 110.5 142.195 110.842 141.655 111.202C140.953 111.67 140.395 112.372 140.395 113.308C140.395 114.496 141.169 115.18 142.285 115.18C143.059 115.18 143.941 114.946 144.895 113.866H144.913C145.003 114.82 145.399 115.18 146.065 115.18C146.677 115.18 147.145 115 147.685 114.316V113.812ZM144.895 112.714C144.895 113.236 144.787 113.488 144.265 113.848C143.959 114.046 143.581 114.136 143.221 114.136C142.519 114.136 141.979 113.704 141.979 112.75C141.979 112.192 142.159 111.76 142.591 111.364C143.041 110.95 143.779 110.572 144.895 110.176V112.714ZM152.515 113.614C152.119 114.082 151.831 114.244 151.435 114.244C150.769 114.244 150.499 113.776 150.499 112.624V107.476H152.317V106.9H150.499V104.812C150.499 104.632 150.463 104.578 150.373 104.578C150.265 104.758 150.121 104.92 150.013 105.082C149.329 106.072 148.735 106.738 148.267 107.008C148.069 107.134 147.961 107.242 147.961 107.35C147.961 107.404 147.979 107.44 148.033 107.476H148.987V112.894C148.987 114.406 149.527 115.18 150.571 115.18C151.471 115.18 152.155 114.748 152.749 113.812L152.515 113.614ZM161.161 110.842C161.161 108.358 159.469 106.72 157.273 106.72C154.843 106.72 153.223 108.394 153.223 110.896C153.223 113.398 154.933 115.18 157.111 115.18C159.541 115.18 161.161 113.344 161.161 110.842ZM159.541 111.328C159.541 113.416 158.749 114.676 157.417 114.676C156.769 114.676 156.193 114.352 155.797 113.776C155.131 112.804 154.843 111.508 154.843 110.086C154.843 108.286 155.689 107.224 156.931 107.224C157.705 107.224 158.209 107.584 158.641 108.124C159.217 108.862 159.541 110.104 159.541 111.328ZM170.431 115V114.73C169.549 114.64 169.333 114.442 169.333 113.47V109.492C169.333 107.71 168.577 106.72 167.209 106.72C166.381 106.72 165.553 107.116 164.617 108.178H164.599V106.774L164.455 106.72C163.573 107.044 162.979 107.242 161.989 107.53V107.836C162.115 107.782 162.313 107.764 162.511 107.764C163.015 107.764 163.141 108.052 163.141 108.934V113.308C163.141 114.37 162.943 114.658 162.025 114.73V115H165.823V114.73C164.905 114.658 164.653 114.406 164.653 113.704V108.736C165.481 107.926 165.913 107.71 166.507 107.71C167.389 107.71 167.821 108.25 167.821 109.528V113.11C167.821 114.298 167.605 114.658 166.705 114.73L166.687 115H170.431ZM185.173 117.898C182.653 115.792 182.113 113.758 182.113 110.41C182.113 106.936 182.671 105.262 185.173 103.12L185.011 102.832C182.131 104.542 180.565 107.134 180.565 110.464C180.565 113.524 182.113 116.566 184.957 118.186L185.173 117.898ZM194.335 114.1H194.227C193.399 114.1 193.201 113.902 193.201 113.074V106.9H190.357V107.206C191.437 107.278 191.689 107.422 191.689 108.376V112.534C191.689 113.164 191.563 113.326 191.275 113.578C190.825 113.974 190.285 114.136 189.763 114.136C189.061 114.136 188.485 113.542 188.485 112.714V106.9H185.857V107.152C186.721 107.206 186.973 107.458 186.973 108.358V112.876C186.973 114.262 187.783 115.18 189.169 115.18C189.835 115.18 190.861 114.838 191.743 113.632H191.779V115.108L191.869 115.162C192.769 114.802 193.417 114.604 194.335 114.352V114.1ZM203.425 115V114.73C202.543 114.64 202.327 114.442 202.327 113.47V109.492C202.327 107.71 201.571 106.72 200.203 106.72C199.375 106.72 198.547 107.116 197.611 108.178H197.593V106.774L197.449 106.72C196.567 107.044 195.973 107.242 194.983 107.53V107.836C195.109 107.782 195.307 107.764 195.505 107.764C196.009 107.764 196.135 108.052 196.135 108.934V113.308C196.135 114.37 195.937 114.658 195.019 114.73V115H198.817V114.73C197.899 114.658 197.647 114.406 197.647 113.704V108.736C198.475 107.926 198.907 107.71 199.501 107.71C200.383 107.71 200.815 108.25 200.815 109.528V113.11C200.815 114.298 200.599 114.658 199.699 114.73L199.681 115H203.425ZM215.607 106.9H213.393V107.17C214.005 107.296 214.185 107.422 214.185 107.71C214.185 107.998 214.077 108.43 213.879 108.916L212.259 112.912L210.747 108.88C210.531 108.322 210.441 108.106 210.441 107.8C210.441 107.422 210.639 107.296 211.485 107.17V106.9H207.831V107.17C208.497 107.242 208.731 107.44 209.073 108.412L209.433 109.42L207.795 113.002L206.013 108.304C205.941 108.124 205.905 107.944 205.905 107.764C205.905 107.386 206.103 107.242 206.733 107.17V106.9H203.493V107.17C203.907 107.206 204.069 107.332 204.447 108.304L206.877 114.46C207.093 115.018 207.237 115.252 207.345 115.252C207.435 115.252 207.579 115.018 207.795 114.55L209.811 110.23L211.449 114.478C211.719 115.162 211.755 115.252 211.881 115.252C212.007 115.252 212.097 115.09 212.385 114.37L214.869 108.142C215.157 107.422 215.247 107.296 215.607 107.17V106.9ZM223.133 112.048C222.251 113.38 221.567 113.938 220.361 113.938C219.533 113.938 218.867 113.614 218.363 112.948C217.715 112.084 217.625 111.382 217.535 110.014H223.079C223.007 109.042 222.827 108.466 222.467 107.962C221.891 107.152 221.081 106.72 219.965 106.72C217.697 106.72 216.239 108.556 216.239 111.094C216.239 113.578 217.535 115.18 219.659 115.18C221.459 115.18 222.719 114.136 223.421 112.174L223.133 112.048ZM217.571 109.438C217.769 108.088 218.471 107.368 219.479 107.368C220.667 107.368 221.045 107.98 221.243 109.438H217.571ZM227.027 103.624C227.027 103.12 226.631 102.706 226.109 102.706C225.605 102.706 225.191 103.12 225.191 103.624C225.191 104.146 225.587 104.542 226.091 104.542C226.631 104.542 227.027 104.146 227.027 103.624ZM228.341 115V114.73C227.153 114.64 227.009 114.442 227.009 113.11V106.792L226.937 106.72L224.147 107.71V107.998C224.471 107.908 224.741 107.908 224.903 107.908C225.353 107.908 225.497 108.196 225.497 109.042V113.128C225.497 114.496 225.317 114.658 224.075 114.73V115H228.341ZM237.257 108.016V107.314H235.871C235.511 107.314 235.241 107.26 234.881 107.134L234.485 106.99C233.999 106.81 233.513 106.72 233.045 106.72C231.371 106.72 230.039 108.016 230.039 109.654C230.039 110.788 230.507 111.472 231.713 112.066C231.461 112.318 231.209 112.552 230.939 112.786C230.345 113.308 230.111 113.668 230.111 114.028C230.111 114.424 230.309 114.622 231.065 114.982C229.769 115.918 229.301 116.512 229.301 117.178C229.301 118.132 230.687 118.924 232.415 118.924C233.711 118.924 235.079 118.492 236.015 117.772C236.753 117.196 237.095 116.602 237.095 115.882C237.095 114.766 236.249 114.01 234.917 113.956L232.595 113.848C231.623 113.794 231.191 113.65 231.191 113.362C231.191 113.002 231.785 112.372 232.271 112.228L232.613 112.264C232.937 112.3 233.189 112.318 233.297 112.318C233.927 112.318 234.593 112.048 235.169 111.616C235.817 111.13 236.105 110.464 236.105 109.528C236.105 109.006 236.015 108.592 235.763 108.016H237.257ZM231.533 108.916C231.533 107.854 232.037 107.224 232.865 107.224C233.423 107.224 233.891 107.53 234.179 108.07C234.521 108.7 234.719 109.51 234.719 110.248C234.719 111.238 234.197 111.868 233.387 111.868C232.271 111.868 231.533 110.698 231.533 108.97V108.916ZM236.591 116.152C236.591 117.196 235.223 117.898 233.171 117.898C231.587 117.898 230.561 117.376 230.561 116.584C230.561 116.17 230.723 115.9 231.443 115.036C232.055 115.162 233.477 115.27 234.359 115.27C235.997 115.27 236.591 115.486 236.591 116.152ZM246.563 115V114.73C245.591 114.55 245.483 114.406 245.483 113.164V109.582C245.483 107.692 244.745 106.72 243.269 106.72C242.207 106.72 241.451 107.152 240.623 108.232V102.76L240.533 102.706C239.903 102.922 239.489 103.048 238.463 103.354L237.977 103.498V103.786C238.031 103.768 238.121 103.768 238.193 103.768C238.967 103.768 239.111 103.912 239.111 104.686V113.164C239.111 114.424 239.003 114.586 237.959 114.73V115H241.847V114.73C240.803 114.622 240.623 114.406 240.623 113.164V108.826C241.379 107.998 241.919 107.692 242.639 107.692C243.521 107.692 243.971 108.34 243.971 109.6V113.164C243.971 114.406 243.791 114.622 242.747 114.73V115H246.563ZM251.585 113.614C251.189 114.082 250.901 114.244 250.505 114.244C249.839 114.244 249.569 113.776 249.569 112.624V107.476H251.387V106.9H249.569V104.812C249.569 104.632 249.533 104.578 249.443 104.578C249.335 104.758 249.191 104.92 249.083 105.082C248.399 106.072 247.805 106.738 247.337 107.008C247.139 107.134 247.031 107.242 247.031 107.35C247.031 107.404 247.049 107.44 247.103 107.476H248.057V112.894C248.057 114.406 248.597 115.18 249.641 115.18C250.541 115.18 251.225 114.748 251.819 113.812L251.585 113.614ZM259.151 112.048C258.269 113.38 257.585 113.938 256.379 113.938C255.551 113.938 254.885 113.614 254.381 112.948C253.733 112.084 253.643 111.382 253.553 110.014H259.097C259.025 109.042 258.845 108.466 258.485 107.962C257.909 107.152 257.099 106.72 255.983 106.72C253.715 106.72 252.257 108.556 252.257 111.094C252.257 113.578 253.553 115.18 255.677 115.18C257.477 115.18 258.737 114.136 259.439 112.174L259.151 112.048ZM253.589 109.438C253.787 108.088 254.489 107.368 255.497 107.368C256.685 107.368 257.063 107.98 257.261 109.438H253.589ZM268.643 114.244V113.956C268.337 113.974 268.319 113.974 268.229 113.974C267.581 113.974 267.437 113.776 267.437 112.948V102.742L267.347 102.706C266.483 103.012 265.853 103.192 264.701 103.498V103.786C264.845 103.768 264.953 103.768 265.097 103.768C265.763 103.768 265.925 103.948 265.925 104.686V107.494C265.241 106.918 264.755 106.72 264.035 106.72C261.965 106.72 260.291 108.754 260.291 111.31C260.291 113.614 261.623 115.18 263.621 115.18C264.629 115.18 265.313 114.82 265.925 113.974V115.126L265.997 115.18L268.643 114.244ZM265.925 113.164C265.925 113.29 265.817 113.488 265.655 113.668C265.331 114.046 264.881 114.244 264.323 114.244C262.811 114.244 261.839 112.804 261.839 110.59C261.839 108.556 262.721 107.224 264.089 107.224C265.061 107.224 265.925 108.07 265.925 109.024V113.164ZM270.299 117.538C271.541 116.944 272.315 115.81 272.315 114.73C272.315 113.794 271.685 113.164 270.875 113.164C270.227 113.164 269.795 113.578 269.795 114.19C269.795 114.802 270.173 115.108 270.839 115.108C271.037 115.108 271.217 115.036 271.361 115.036C271.505 115.036 271.613 115.144 271.613 115.27C271.613 115.864 271.109 116.53 270.119 117.196L270.299 117.538ZM287.219 115V114.73C286.301 114.64 285.995 114.37 285.995 113.218V108.556C285.995 108.16 285.995 107.728 286.031 106.774L285.941 106.702C285.167 106.828 284.663 106.9 283.889 106.9H281.117V106.09C281.117 104.938 281.117 104.272 281.657 103.732C281.999 103.372 282.503 103.156 283.007 103.156C284.105 103.156 284.429 104.668 285.185 104.668C285.635 104.668 285.815 104.398 285.815 103.93C285.815 103.156 284.987 102.706 283.565 102.706C282.485 102.706 281.567 102.994 280.919 103.552C279.929 104.434 279.821 105.208 279.623 106.9H278.399V107.494H279.605V113.272C279.605 114.424 279.389 114.694 278.381 114.73V115H282.341V114.73C281.333 114.658 281.117 114.37 281.117 113.38V107.494H282.629C284.339 107.494 284.483 107.638 284.483 108.52V113.218C284.483 114.442 284.375 114.64 283.259 114.73V115H287.219ZM296.572 115V114.73C295.69 114.64 295.474 114.442 295.474 113.47V109.492C295.474 107.71 294.718 106.72 293.35 106.72C292.522 106.72 291.694 107.116 290.758 108.178H290.74V106.774L290.596 106.72C289.714 107.044 289.12 107.242 288.13 107.53V107.836C288.256 107.782 288.454 107.764 288.652 107.764C289.156 107.764 289.282 108.052 289.282 108.934V113.308C289.282 114.37 289.084 114.658 288.166 114.73V115H291.964V114.73C291.046 114.658 290.794 114.406 290.794 113.704V108.736C291.622 107.926 292.054 107.71 292.648 107.71C293.53 107.71 293.962 108.25 293.962 109.528V113.11C293.962 114.298 293.746 114.658 292.846 114.73L292.828 115H296.572ZM300.082 103.624C300.082 103.12 299.686 102.706 299.164 102.706C298.66 102.706 298.246 103.12 298.246 103.624C298.246 104.146 298.642 104.542 299.146 104.542C299.686 104.542 300.082 104.146 300.082 103.624ZM301.396 115V114.73C300.208 114.64 300.064 114.442 300.064 113.11V106.792L299.992 106.72L297.202 107.71V107.998C297.526 107.908 297.796 107.908 297.958 107.908C298.408 107.908 298.552 108.196 298.552 109.042V113.128C298.552 114.496 298.372 114.658 297.13 114.73V115H301.396ZM306.64 113.614C306.244 114.082 305.956 114.244 305.56 114.244C304.894 114.244 304.624 113.776 304.624 112.624V107.476H306.442V106.9H304.624V104.812C304.624 104.632 304.588 104.578 304.498 104.578C304.39 104.758 304.246 104.92 304.138 105.082C303.454 106.072 302.86 106.738 302.392 107.008C302.194 107.134 302.086 107.242 302.086 107.35C302.086 107.404 302.104 107.44 302.158 107.476H303.112V112.894C303.112 114.406 303.652 115.18 304.696 115.18C305.596 115.18 306.28 114.748 306.874 113.812L306.64 113.614ZM314.205 112.048C313.323 113.38 312.639 113.938 311.433 113.938C310.605 113.938 309.939 113.614 309.435 112.948C308.787 112.084 308.697 111.382 308.607 110.014H314.151C314.079 109.042 313.899 108.466 313.539 107.962C312.963 107.152 312.153 106.72 311.037 106.72C308.769 106.72 307.311 108.556 307.311 111.094C307.311 113.578 308.607 115.18 310.731 115.18C312.531 115.18 313.791 114.136 314.493 112.174L314.205 112.048ZM308.643 109.438C308.841 108.088 309.543 107.368 310.551 107.368C311.739 107.368 312.117 107.98 312.315 109.438H308.643ZM319.989 111.508V110.374H315.561V111.508H319.989ZM323.662 109.582C323.158 109.276 322.888 108.754 322.888 108.358C322.888 107.512 323.464 107.134 324.238 107.134C325.318 107.134 325.858 107.728 326.272 109.348H326.542L326.452 106.9H326.254C326.11 107.062 326.038 107.08 325.966 107.08C325.84 107.08 325.66 107.026 325.462 106.936C325.084 106.756 324.688 106.738 324.256 106.738C322.78 106.738 321.772 107.53 321.772 108.952C321.772 109.87 322.438 110.734 323.932 111.562L324.904 112.102C325.498 112.426 325.858 112.894 325.858 113.452C325.858 114.19 325.282 114.784 324.364 114.784C323.122 114.784 322.456 113.992 322.078 112.246H321.79V115.072H322.024C322.132 114.892 322.24 114.856 322.456 114.856C322.654 114.856 322.852 114.874 323.284 115.018C323.698 115.162 324.22 115.18 324.598 115.18C325.966 115.18 327.118 114.136 327.118 112.93C327.118 111.904 326.686 111.418 325.534 110.716L323.662 109.582ZM332.497 113.614C332.101 114.082 331.813 114.244 331.417 114.244C330.751 114.244 330.481 113.776 330.481 112.624V107.476H332.299V106.9H330.481V104.812C330.481 104.632 330.445 104.578 330.355 104.578C330.247 104.758 330.103 104.92 329.995 105.082C329.311 106.072 328.717 106.738 328.249 107.008C328.051 107.134 327.943 107.242 327.943 107.35C327.943 107.404 327.961 107.44 328.015 107.476H328.969V112.894C328.969 114.406 329.509 115.18 330.553 115.18C331.453 115.18 332.137 114.748 332.731 113.812L332.497 113.614ZM340.851 113.812C340.545 114.064 340.365 114.154 340.077 114.154C339.753 114.154 339.519 113.794 339.519 112.966V109.528C339.519 108.43 339.447 108.052 339.015 107.53C338.583 107.008 337.899 106.72 336.891 106.72C336.081 106.72 335.325 106.936 334.821 107.26C334.191 107.656 333.903 108.232 333.903 108.7C333.903 109.186 334.299 109.528 334.677 109.528C335.145 109.528 335.505 109.132 335.505 108.79C335.505 108.412 335.397 108.358 335.397 108.034C335.397 107.548 335.937 107.152 336.657 107.152C337.467 107.152 338.061 107.656 338.061 108.772V109.744C336.027 110.5 335.361 110.842 334.821 111.202C334.119 111.67 333.561 112.372 333.561 113.308C333.561 114.496 334.335 115.18 335.451 115.18C336.225 115.18 337.107 114.946 338.061 113.866H338.079C338.169 114.82 338.565 115.18 339.231 115.18C339.843 115.18 340.311 115 340.851 114.316V113.812ZM338.061 112.714C338.061 113.236 337.953 113.488 337.431 113.848C337.125 114.046 336.747 114.136 336.387 114.136C335.685 114.136 335.145 113.704 335.145 112.75C335.145 112.192 335.325 111.76 335.757 111.364C336.207 110.95 336.945 110.572 338.061 110.176V112.714ZM345.681 113.614C345.285 114.082 344.997 114.244 344.601 114.244C343.935 114.244 343.665 113.776 343.665 112.624V107.476H345.483V106.9H343.665V104.812C343.665 104.632 343.629 104.578 343.539 104.578C343.431 104.758 343.287 104.92 343.179 105.082C342.495 106.072 341.901 106.738 341.433 107.008C341.235 107.134 341.127 107.242 341.127 107.35C341.127 107.404 341.145 107.44 341.199 107.476H342.153V112.894C342.153 114.406 342.693 115.18 343.737 115.18C344.637 115.18 345.321 114.748 345.915 113.812L345.681 113.614ZM353.246 112.048C352.364 113.38 351.68 113.938 350.474 113.938C349.646 113.938 348.98 113.614 348.476 112.948C347.828 112.084 347.738 111.382 347.648 110.014H353.192C353.12 109.042 352.94 108.466 352.58 107.962C352.004 107.152 351.194 106.72 350.078 106.72C347.81 106.72 346.352 108.556 346.352 111.094C346.352 113.578 347.648 115.18 349.772 115.18C351.572 115.18 352.832 114.136 353.534 112.174L353.246 112.048ZM347.684 109.438C347.882 108.088 348.584 107.368 349.592 107.368C350.78 107.368 351.158 107.98 351.356 109.438H347.684ZM354.422 103.12C357.032 105.172 357.482 107.242 357.482 110.608C357.482 114.1 356.978 115.792 354.422 117.898L354.584 118.186C357.446 116.44 359.03 113.884 359.03 110.554C359.03 107.494 357.392 104.488 354.638 102.832L354.422 103.12ZM106.979 135.464C106.979 133.574 105.557 132.008 103.505 132.008C101.597 132.008 100.049 133.592 100.049 135.464C100.049 137.39 101.597 138.938 103.505 138.938C105.395 138.938 106.979 137.372 106.979 135.464ZM117.288 128.084V128.426C118.656 128.516 118.872 128.678 118.872 130.1V137.93C118.872 139.334 118.692 139.568 117.288 139.658V140H122.346C124.164 140 125.766 139.568 126.882 138.848C128.484 137.822 129.33 136.13 129.33 133.988C129.33 132.134 128.718 130.73 127.548 129.722C126.324 128.66 124.47 128.084 122.148 128.084H117.288ZM120.708 129.506C120.708 128.912 120.978 128.75 121.662 128.75C123.462 128.75 124.596 129.056 125.658 129.992C126.792 130.982 127.368 132.224 127.368 134.096C127.368 136.13 126.756 137.552 125.496 138.398C124.416 139.118 123.426 139.334 121.572 139.334C120.87 139.334 120.708 139.118 120.708 138.488V129.506ZM137.334 137.048C136.452 138.38 135.768 138.938 134.562 138.938C133.734 138.938 133.068 138.614 132.564 137.948C131.916 137.084 131.826 136.382 131.736 135.014H137.28C137.208 134.042 137.028 133.466 136.668 132.962C136.092 132.152 135.282 131.72 134.166 131.72C131.898 131.72 130.44 133.556 130.44 136.094C130.44 138.578 131.736 140.18 133.86 140.18C135.66 140.18 136.92 139.136 137.622 137.174L137.334 137.048ZM131.772 134.438C131.97 133.088 132.672 132.368 133.68 132.368C134.868 132.368 135.246 132.98 135.444 134.438H131.772ZM142.618 138.614C142.222 139.082 141.934 139.244 141.538 139.244C140.872 139.244 140.602 138.776 140.602 137.624V132.476H142.42V131.9H140.602V129.812C140.602 129.632 140.566 129.578 140.476 129.578C140.368 129.758 140.224 129.92 140.116 130.082C139.432 131.072 138.838 131.738 138.37 132.008C138.172 132.134 138.064 132.242 138.064 132.35C138.064 132.404 138.082 132.44 138.136 132.476H139.09V137.894C139.09 139.406 139.63 140.18 140.674 140.18C141.574 140.18 142.258 139.748 142.852 138.812L142.618 138.614ZM150.184 137.048C149.302 138.38 148.618 138.938 147.412 138.938C146.584 138.938 145.918 138.614 145.414 137.948C144.766 137.084 144.676 136.382 144.586 135.014H150.13C150.058 134.042 149.878 133.466 149.518 132.962C148.942 132.152 148.132 131.72 147.016 131.72C144.748 131.72 143.29 133.556 143.29 136.094C143.29 138.578 144.586 140.18 146.71 140.18C148.51 140.18 149.77 139.136 150.472 137.174L150.184 137.048ZM144.622 134.438C144.82 133.088 145.522 132.368 146.53 132.368C147.718 132.368 148.096 132.98 148.294 134.438H144.622ZM153.718 131.756L153.628 131.72C152.674 132.098 152.026 132.35 150.964 132.692V132.98C151.216 132.926 151.378 132.908 151.594 132.908C152.044 132.908 152.206 133.196 152.206 133.988V138.488C152.206 139.388 152.08 139.514 150.928 139.73V140H155.248V139.73C154.024 139.676 153.718 139.406 153.718 138.38V134.33C153.718 133.754 154.474 132.854 154.978 132.854C155.086 132.854 155.248 132.944 155.446 133.124C155.734 133.394 155.932 133.484 156.166 133.484C156.598 133.484 156.868 133.178 156.868 132.674C156.868 132.08 156.49 131.72 155.878 131.72C155.122 131.72 154.618 132.116 153.718 133.412V131.756ZM171.134 140V139.73L170.666 139.694C170.126 139.658 169.892 139.424 169.892 138.614V134.96C169.892 132.836 169.262 131.72 167.804 131.72C166.76 131.72 165.842 132.188 164.87 133.232C164.546 132.206 163.934 131.72 162.962 131.72C162.152 131.72 161.396 131.882 160.208 133.106H160.172V131.774L160.028 131.72C159.11 132.062 158.516 132.26 157.526 132.53V132.836C157.76 132.782 157.904 132.764 158.102 132.764C158.57 132.764 158.732 133.07 158.732 133.952V138.416C158.732 139.46 158.48 139.712 157.472 139.73V140H161.468V139.73C160.514 139.694 160.244 139.514 160.244 138.74V133.736C160.244 133.7 160.352 133.574 160.478 133.43C160.838 132.998 161.72 132.656 162.386 132.656C163.16 132.656 163.556 133.412 163.556 134.654V138.452C163.556 139.55 163.358 139.658 162.332 139.73V140H166.364V139.73C165.338 139.712 165.068 139.46 165.068 138.29V133.754C165.608 132.98 166.148 132.656 166.994 132.656C168.02 132.656 168.38 133.25 168.38 134.672V138.38C168.38 139.424 168.218 139.622 167.21 139.73V140H171.134ZM174.433 128.624C174.433 128.12 174.037 127.706 173.515 127.706C173.011 127.706 172.597 128.12 172.597 128.624C172.597 129.146 172.993 129.542 173.497 129.542C174.037 129.542 174.433 129.146 174.433 128.624ZM175.747 140V139.73C174.559 139.64 174.415 139.442 174.415 138.11V131.792L174.343 131.72L171.553 132.71V132.998C171.877 132.908 172.147 132.908 172.309 132.908C172.759 132.908 172.903 133.196 172.903 134.042V138.128C172.903 139.496 172.723 139.658 171.481 139.73V140H175.747ZM184.933 140V139.73C184.051 139.64 183.835 139.442 183.835 138.47V134.492C183.835 132.71 183.079 131.72 181.711 131.72C180.883 131.72 180.055 132.116 179.119 133.178H179.101V131.774L178.957 131.72C178.075 132.044 177.481 132.242 176.491 132.53V132.836C176.617 132.782 176.815 132.764 177.013 132.764C177.517 132.764 177.643 133.052 177.643 133.934V138.308C177.643 139.37 177.445 139.658 176.527 139.73V140H180.325V139.73C179.407 139.658 179.155 139.406 179.155 138.704V133.736C179.983 132.926 180.415 132.71 181.009 132.71C181.891 132.71 182.323 133.25 182.323 134.528V138.11C182.323 139.298 182.107 139.658 181.207 139.73L181.189 140H184.933ZM188.443 128.624C188.443 128.12 188.047 127.706 187.525 127.706C187.021 127.706 186.607 128.12 186.607 128.624C186.607 129.146 187.003 129.542 187.507 129.542C188.047 129.542 188.443 129.146 188.443 128.624ZM189.757 140V139.73C188.569 139.64 188.425 139.442 188.425 138.11V131.792L188.353 131.72L185.563 132.71V132.998C185.887 132.908 186.157 132.908 186.319 132.908C186.769 132.908 186.913 133.196 186.913 134.042V138.128C186.913 139.496 186.733 139.658 185.491 139.73V140H189.757ZM193.021 134.582C192.517 134.276 192.247 133.754 192.247 133.358C192.247 132.512 192.823 132.134 193.597 132.134C194.677 132.134 195.217 132.728 195.631 134.348H195.901L195.811 131.9H195.613C195.469 132.062 195.397 132.08 195.325 132.08C195.199 132.08 195.019 132.026 194.821 131.936C194.443 131.756 194.047 131.738 193.615 131.738C192.139 131.738 191.131 132.53 191.131 133.952C191.131 134.87 191.797 135.734 193.291 136.562L194.263 137.102C194.857 137.426 195.217 137.894 195.217 138.452C195.217 139.19 194.641 139.784 193.723 139.784C192.481 139.784 191.815 138.992 191.437 137.246H191.149V140.072H191.383C191.491 139.892 191.599 139.856 191.815 139.856C192.013 139.856 192.211 139.874 192.643 140.018C193.057 140.162 193.579 140.18 193.957 140.18C195.325 140.18 196.477 139.136 196.477 137.93C196.477 136.904 196.045 136.418 194.893 135.716L193.021 134.582ZM201.856 138.614C201.46 139.082 201.172 139.244 200.776 139.244C200.11 139.244 199.84 138.776 199.84 137.624V132.476H201.658V131.9H199.84V129.812C199.84 129.632 199.804 129.578 199.714 129.578C199.606 129.758 199.462 129.92 199.354 130.082C198.67 131.072 198.076 131.738 197.608 132.008C197.41 132.134 197.302 132.242 197.302 132.35C197.302 132.404 197.32 132.44 197.374 132.476H198.328V137.894C198.328 139.406 198.868 140.18 199.912 140.18C200.812 140.18 201.496 139.748 202.09 138.812L201.856 138.614ZM205.318 128.624C205.318 128.12 204.922 127.706 204.4 127.706C203.896 127.706 203.482 128.12 203.482 128.624C203.482 129.146 203.878 129.542 204.382 129.542C204.922 129.542 205.318 129.146 205.318 128.624ZM206.632 140V139.73C205.444 139.64 205.3 139.442 205.3 138.11V131.792L205.228 131.72L202.438 132.71V132.998C202.762 132.908 203.032 132.908 203.194 132.908C203.644 132.908 203.788 133.196 203.788 134.042V138.128C203.788 139.496 203.608 139.658 202.366 139.73V140H206.632ZM214.252 137.192C213.388 138.452 212.74 138.884 211.714 138.884C210.058 138.884 208.924 137.444 208.924 135.374C208.924 133.502 209.914 132.242 211.372 132.242C212.02 132.242 212.254 132.44 212.434 133.106L212.542 133.502C212.686 134.024 213.01 134.33 213.406 134.33C213.874 134.33 214.252 133.988 214.252 133.574C214.252 132.566 212.992 131.72 211.48 131.72C210.634 131.72 209.77 132.044 209.05 132.638C208.078 133.448 207.538 134.69 207.538 136.184C207.538 138.506 208.96 140.18 210.958 140.18C211.732 140.18 212.416 139.928 213.028 139.424C213.568 138.992 213.928 138.47 214.504 137.354L214.252 137.192ZM225.058 142.898C222.538 140.792 221.998 138.758 221.998 135.41C221.998 131.936 222.556 130.262 225.058 128.12L224.896 127.832C222.016 129.542 220.45 132.134 220.45 135.464C220.45 138.524 221.998 141.566 224.842 143.186L225.058 142.898ZM225.868 128.084V128.426C227.236 128.516 227.452 128.678 227.452 130.1V137.93C227.452 139.334 227.272 139.568 225.868 139.658V140H230.926C232.744 140 234.346 139.568 235.462 138.848C237.064 137.822 237.91 136.13 237.91 133.988C237.91 132.134 237.298 130.73 236.128 129.722C234.904 128.66 233.05 128.084 230.728 128.084H225.868ZM229.288 129.506C229.288 128.912 229.558 128.75 230.242 128.75C232.042 128.75 233.176 129.056 234.238 129.992C235.372 130.982 235.948 132.224 235.948 134.096C235.948 136.13 235.336 137.552 234.076 138.398C232.996 139.118 232.006 139.334 230.152 139.334C229.45 139.334 229.288 139.118 229.288 138.488V129.506ZM248.398 130.658L248.308 128.084H238.786V128.426C240.172 128.534 240.352 128.768 240.352 130.082V137.786C240.352 139.352 240.136 139.568 238.768 139.658V140H243.826V139.658C242.44 139.586 242.188 139.352 242.188 137.984V134.114H244.744C246.292 134.114 246.634 134.384 246.778 135.86H247.192V131.666H246.778C246.616 133.07 246.256 133.376 244.744 133.376H242.188V129.47C242.188 128.912 242.278 128.768 242.8 128.768H245.176C247.354 128.768 247.678 129.056 247.948 130.658H248.398ZM260.665 140V139.658C259.729 139.55 259.477 139.172 258.973 138.002L254.545 127.868H254.185L250.477 136.652C249.415 139.172 249.253 139.55 248.209 139.658V140H251.791V139.658C250.927 139.658 250.531 139.478 250.531 138.92C250.531 138.704 250.603 138.398 250.693 138.164L251.521 136.112H256.237L256.975 137.804C257.191 138.308 257.317 138.794 257.317 139.064C257.317 139.226 257.209 139.424 257.065 139.496C256.849 139.622 256.723 139.658 256.075 139.658V140H260.665ZM255.985 135.374H251.827L253.897 130.424L255.985 135.374ZM261.452 128.12C264.062 130.172 264.512 132.242 264.512 135.608C264.512 139.1 264.008 140.792 261.452 142.898L261.614 143.186C264.476 141.44 266.06 138.884 266.06 135.554C266.06 132.494 264.422 129.488 261.668 127.832L261.452 128.12ZM106.979 160.464C106.979 158.574 105.557 157.008 103.505 157.008C101.597 157.008 100.049 158.592 100.049 160.464C100.049 162.39 101.597 163.938 103.505 163.938C105.395 163.938 106.979 162.372 106.979 160.464ZM129.726 153.084H125.46V153.426C126.252 153.516 126.576 153.552 126.882 153.894C127.152 154.2 127.224 154.74 127.224 155.658V161.778L120.276 153.084H117.216V153.426C118.098 153.426 118.368 153.642 118.962 154.38V162.3C118.962 164.226 118.692 164.496 117.216 164.658V165H121.428V164.658C120.042 164.46 119.754 164.154 119.754 162.3V155.316L127.692 165.198H128.016V155.874C128.016 154.452 128.196 154.056 128.538 153.75C128.772 153.552 129.042 153.498 129.726 153.426V153.084ZM138.222 160.842C138.222 158.358 136.53 156.72 134.334 156.72C131.904 156.72 130.284 158.394 130.284 160.896C130.284 163.398 131.994 165.18 134.172 165.18C136.602 165.18 138.222 163.344 138.222 160.842ZM136.602 161.328C136.602 163.416 135.81 164.676 134.478 164.676C133.83 164.676 133.254 164.352 132.858 163.776C132.192 162.804 131.904 161.508 131.904 160.086C131.904 158.286 132.75 157.224 133.992 157.224C134.766 157.224 135.27 157.584 135.702 158.124C136.278 158.862 136.602 160.104 136.602 161.328ZM147.492 165V164.73C146.61 164.64 146.394 164.442 146.394 163.47V159.492C146.394 157.71 145.638 156.72 144.27 156.72C143.442 156.72 142.614 157.116 141.678 158.178H141.66V156.774L141.516 156.72C140.634 157.044 140.04 157.242 139.05 157.53V157.836C139.176 157.782 139.374 157.764 139.572 157.764C140.076 157.764 140.202 158.052 140.202 158.934V163.308C140.202 164.37 140.004 164.658 139.086 164.73V165H142.884V164.73C141.966 164.658 141.714 164.406 141.714 163.704V158.736C142.542 157.926 142.974 157.71 143.568 157.71C144.45 157.71 144.882 158.25 144.882 159.528V163.11C144.882 164.298 144.666 164.658 143.766 164.73L143.748 165H147.492ZM152.892 161.508V160.374H148.464V161.508H152.892ZM162.594 164.244V163.956C162.288 163.974 162.27 163.974 162.18 163.974C161.532 163.974 161.388 163.776 161.388 162.948V152.742L161.298 152.706C160.434 153.012 159.804 153.192 158.652 153.498V153.786C158.796 153.768 158.904 153.768 159.048 153.768C159.714 153.768 159.876 153.948 159.876 154.686V157.494C159.192 156.918 158.706 156.72 157.986 156.72C155.916 156.72 154.242 158.754 154.242 161.31C154.242 163.614 155.574 165.18 157.572 165.18C158.58 165.18 159.264 164.82 159.876 163.974V165.126L159.948 165.18L162.594 164.244ZM159.876 163.164C159.876 163.29 159.768 163.488 159.606 163.668C159.282 164.046 158.832 164.244 158.274 164.244C156.762 164.244 155.79 162.804 155.79 160.59C155.79 158.556 156.672 157.224 158.04 157.224C159.012 157.224 159.876 158.07 159.876 159.024V163.164ZM170.1 162.048C169.218 163.38 168.534 163.938 167.328 163.938C166.5 163.938 165.834 163.614 165.33 162.948C164.682 162.084 164.592 161.382 164.502 160.014H170.046C169.974 159.042 169.794 158.466 169.434 157.962C168.858 157.152 168.048 156.72 166.932 156.72C164.664 156.72 163.206 158.556 163.206 161.094C163.206 163.578 164.502 165.18 166.626 165.18C168.426 165.18 169.686 164.136 170.388 162.174L170.1 162.048ZM164.538 159.438C164.736 158.088 165.438 157.368 166.446 157.368C167.634 157.368 168.012 157.98 168.21 159.438H164.538ZM175.384 163.614C174.988 164.082 174.7 164.244 174.304 164.244C173.638 164.244 173.368 163.776 173.368 162.624V157.476H175.186V156.9H173.368V154.812C173.368 154.632 173.332 154.578 173.242 154.578C173.134 154.758 172.99 154.92 172.882 155.082C172.198 156.072 171.604 156.738 171.136 157.008C170.938 157.134 170.83 157.242 170.83 157.35C170.83 157.404 170.848 157.44 170.902 157.476H171.856V162.894C171.856 164.406 172.396 165.18 173.44 165.18C174.34 165.18 175.024 164.748 175.618 163.812L175.384 163.614ZM182.949 162.048C182.067 163.38 181.383 163.938 180.177 163.938C179.349 163.938 178.683 163.614 178.179 162.948C177.531 162.084 177.441 161.382 177.351 160.014H182.895C182.823 159.042 182.643 158.466 182.283 157.962C181.707 157.152 180.897 156.72 179.781 156.72C177.513 156.72 176.055 158.556 176.055 161.094C176.055 163.578 177.351 165.18 179.475 165.18C181.275 165.18 182.535 164.136 183.237 162.174L182.949 162.048ZM177.387 159.438C177.585 158.088 178.287 157.368 179.295 157.368C180.483 157.368 180.861 157.98 181.059 159.438H177.387ZM186.484 156.756L186.394 156.72C185.44 157.098 184.792 157.35 183.73 157.692V157.98C183.982 157.926 184.144 157.908 184.36 157.908C184.81 157.908 184.972 158.196 184.972 158.988V163.488C184.972 164.388 184.846 164.514 183.694 164.73V165H188.014V164.73C186.79 164.676 186.484 164.406 186.484 163.38V159.33C186.484 158.754 187.24 157.854 187.744 157.854C187.852 157.854 188.014 157.944 188.212 158.124C188.5 158.394 188.698 158.484 188.932 158.484C189.364 158.484 189.634 158.178 189.634 157.674C189.634 157.08 189.256 156.72 188.644 156.72C187.888 156.72 187.384 157.116 186.484 158.412V156.756ZM203.899 165V164.73L203.431 164.694C202.891 164.658 202.657 164.424 202.657 163.614V159.96C202.657 157.836 202.027 156.72 200.569 156.72C199.525 156.72 198.607 157.188 197.635 158.232C197.311 157.206 196.699 156.72 195.727 156.72C194.917 156.72 194.161 156.882 192.973 158.106H192.937V156.774L192.793 156.72C191.875 157.062 191.281 157.26 190.291 157.53V157.836C190.525 157.782 190.669 157.764 190.867 157.764C191.335 157.764 191.497 158.07 191.497 158.952V163.416C191.497 164.46 191.245 164.712 190.237 164.73V165H194.233V164.73C193.279 164.694 193.009 164.514 193.009 163.74V158.736C193.009 158.7 193.117 158.574 193.243 158.43C193.603 157.998 194.485 157.656 195.151 157.656C195.925 157.656 196.321 158.412 196.321 159.654V163.452C196.321 164.55 196.123 164.658 195.097 164.73V165H199.129V164.73C198.103 164.712 197.833 164.46 197.833 163.29V158.754C198.373 157.98 198.913 157.656 199.759 157.656C200.785 157.656 201.145 158.25 201.145 159.672V163.38C201.145 164.424 200.983 164.622 199.975 164.73V165H203.899ZM207.199 153.624C207.199 153.12 206.803 152.706 206.281 152.706C205.777 152.706 205.363 153.12 205.363 153.624C205.363 154.146 205.759 154.542 206.263 154.542C206.803 154.542 207.199 154.146 207.199 153.624ZM208.513 165V164.73C207.325 164.64 207.181 164.442 207.181 163.11V156.792L207.109 156.72L204.319 157.71V157.998C204.643 157.908 204.913 157.908 205.075 157.908C205.525 157.908 205.669 158.196 205.669 159.042V163.128C205.669 164.496 205.489 164.658 204.247 164.73V165H208.513ZM217.699 165V164.73C216.817 164.64 216.601 164.442 216.601 163.47V159.492C216.601 157.71 215.845 156.72 214.477 156.72C213.649 156.72 212.821 157.116 211.885 158.178H211.867V156.774L211.723 156.72C210.841 157.044 210.247 157.242 209.257 157.53V157.836C209.383 157.782 209.581 157.764 209.779 157.764C210.283 157.764 210.409 158.052 210.409 158.934V163.308C210.409 164.37 210.211 164.658 209.293 164.73V165H213.091V164.73C212.173 164.658 211.921 164.406 211.921 163.704V158.736C212.749 157.926 213.181 157.71 213.775 157.71C214.657 157.71 215.089 158.25 215.089 159.528V163.11C215.089 164.298 214.873 164.658 213.973 164.73L213.955 165H217.699ZM221.209 153.624C221.209 153.12 220.813 152.706 220.291 152.706C219.787 152.706 219.373 153.12 219.373 153.624C219.373 154.146 219.769 154.542 220.273 154.542C220.813 154.542 221.209 154.146 221.209 153.624ZM222.523 165V164.73C221.335 164.64 221.191 164.442 221.191 163.11V156.792L221.119 156.72L218.329 157.71V157.998C218.653 157.908 218.923 157.908 219.085 157.908C219.535 157.908 219.679 158.196 219.679 159.042V163.128C219.679 164.496 219.499 164.658 218.257 164.73V165H222.523ZM225.787 159.582C225.283 159.276 225.013 158.754 225.013 158.358C225.013 157.512 225.589 157.134 226.363 157.134C227.443 157.134 227.983 157.728 228.397 159.348H228.667L228.577 156.9H228.379C228.235 157.062 228.163 157.08 228.091 157.08C227.965 157.08 227.785 157.026 227.587 156.936C227.209 156.756 226.813 156.738 226.381 156.738C224.905 156.738 223.897 157.53 223.897 158.952C223.897 159.87 224.563 160.734 226.057 161.562L227.029 162.102C227.623 162.426 227.983 162.894 227.983 163.452C227.983 164.19 227.407 164.784 226.489 164.784C225.247 164.784 224.581 163.992 224.203 162.246H223.915V165.072H224.149C224.257 164.892 224.365 164.856 224.581 164.856C224.779 164.856 224.977 164.874 225.409 165.018C225.823 165.162 226.345 165.18 226.723 165.18C228.091 165.18 229.243 164.136 229.243 162.93C229.243 161.904 228.811 161.418 227.659 160.716L225.787 159.582ZM234.622 163.614C234.226 164.082 233.938 164.244 233.542 164.244C232.876 164.244 232.606 163.776 232.606 162.624V157.476H234.424V156.9H232.606V154.812C232.606 154.632 232.57 154.578 232.48 154.578C232.372 154.758 232.228 154.92 232.12 155.082C231.436 156.072 230.842 156.738 230.374 157.008C230.176 157.134 230.068 157.242 230.068 157.35C230.068 157.404 230.086 157.44 230.14 157.476H231.094V162.894C231.094 164.406 231.634 165.18 232.678 165.18C233.578 165.18 234.262 164.748 234.856 163.812L234.622 163.614ZM238.084 153.624C238.084 153.12 237.688 152.706 237.166 152.706C236.662 152.706 236.248 153.12 236.248 153.624C236.248 154.146 236.644 154.542 237.148 154.542C237.688 154.542 238.084 154.146 238.084 153.624ZM239.398 165V164.73C238.21 164.64 238.066 164.442 238.066 163.11V156.792L237.994 156.72L235.204 157.71V157.998C235.528 157.908 235.798 157.908 235.96 157.908C236.41 157.908 236.554 158.196 236.554 159.042V163.128C236.554 164.496 236.374 164.658 235.132 164.73V165H239.398ZM247.018 162.192C246.154 163.452 245.506 163.884 244.48 163.884C242.824 163.884 241.69 162.444 241.69 160.374C241.69 158.502 242.68 157.242 244.138 157.242C244.786 157.242 245.02 157.44 245.2 158.106L245.308 158.502C245.452 159.024 245.776 159.33 246.172 159.33C246.64 159.33 247.018 158.988 247.018 158.574C247.018 157.566 245.758 156.72 244.246 156.72C243.4 156.72 242.536 157.044 241.816 157.638C240.844 158.448 240.304 159.69 240.304 161.184C240.304 163.506 241.726 165.18 243.724 165.18C244.498 165.18 245.182 164.928 245.794 164.424C246.334 163.992 246.694 163.47 247.27 162.354L247.018 162.192ZM257.824 167.898C255.304 165.792 254.764 163.758 254.764 160.41C254.764 156.936 255.322 155.262 257.824 153.12L257.662 152.832C254.782 154.542 253.216 157.134 253.216 160.464C253.216 163.524 254.764 166.566 257.608 168.186L257.824 167.898ZM271.072 153.084H266.806V153.426C267.598 153.516 267.922 153.552 268.228 153.894C268.498 154.2 268.57 154.74 268.57 155.658V161.778L261.622 153.084H258.562V153.426C259.444 153.426 259.714 153.642 260.308 154.38V162.3C260.308 164.226 260.038 164.496 258.562 164.658V165H262.774V164.658C261.388 164.46 261.1 164.154 261.1 162.3V155.316L269.038 165.198H269.362V155.874C269.362 154.452 269.542 154.056 269.884 153.75C270.118 153.552 270.388 153.498 271.072 153.426V153.084ZM281.164 155.658L281.074 153.084H271.552V153.426C272.938 153.534 273.118 153.768 273.118 155.082V162.786C273.118 164.352 272.902 164.568 271.534 164.658V165H276.592V164.658C275.206 164.586 274.954 164.352 274.954 162.984V159.114H277.51C279.058 159.114 279.4 159.384 279.544 160.86H279.958V156.666H279.544C279.382 158.07 279.022 158.376 277.51 158.376H274.954V154.47C274.954 153.912 275.044 153.768 275.566 153.768H277.942C280.12 153.768 280.444 154.056 280.714 155.658H281.164ZM293.431 165V164.658C292.495 164.55 292.243 164.172 291.739 163.002L287.311 152.868H286.951L283.243 161.652C282.181 164.172 282.019 164.55 280.975 164.658V165H284.557V164.658C283.693 164.658 283.297 164.478 283.297 163.92C283.297 163.704 283.369 163.398 283.459 163.164L284.287 161.112H289.003L289.741 162.804C289.957 163.308 290.083 163.794 290.083 164.064C290.083 164.226 289.975 164.424 289.831 164.496C289.615 164.622 289.489 164.658 288.841 164.658V165H293.431ZM288.751 160.374H284.593L286.663 155.424L288.751 160.374ZM294.217 153.12C296.827 155.172 297.277 157.242 297.277 160.608C297.277 164.1 296.773 165.792 294.217 167.898L294.379 168.186C297.241 166.44 298.825 163.884 298.825 160.554C298.825 157.494 297.187 154.488 294.433 152.832L294.217 153.12Z" fill="black"/>
</svg>
