<?xml version="1.0" encoding="UTF-8" standalone="no"?>
<!DOCTYPE svg PUBLIC "-//W3C//DTD SVG 1.1//EN"
 "http://www.w3.org/Graphics/SVG/1.1/DTD/svg11.dtd">
<!-- Generated by graphviz version 2.47.3 (20210619.1520)
 -->
<!-- Title: FST Pages: 1 -->
<svg width="145pt" height="59pt"
 viewBox="0.00 0.00 145.00 58.93" xmlns="http://www.w3.org/2000/svg" xmlns:xlink="http://www.w3.org/1999/xlink">
<g id="graph0" class="graph" transform="scale(1 1) rotate(0) translate(4 54.93)">
<title>FST</title>
<polygon fill="white" stroke="transparent" points="-4,4 -4,-54.93 141,-54.93 141,4 -4,4"/>
<!-- 0 -->
<g id="node1" class="node">
<title>0</title>
<ellipse fill="none" stroke="black" stroke-width="2" cx="18" cy="-28.93" rx="18" ry="18"/>
<text text-anchor="middle" x="18" y="-25.23" font-family="Times,serif" font-size="14.00">0</text>
</g>
<!-- 1 -->
<g id="node2" class="node">
<title>1</title>
<ellipse fill="none" stroke="black" cx="115" cy="-28.93" rx="18" ry="18"/>
<ellipse fill="none" stroke="black" cx="115" cy="-28.93" rx="22" ry="22"/>
<text text-anchor="middle" x="115" y="-25.23" font-family="Times,serif" font-size="14.00">1</text>
</g>
<!-- 0&#45;&gt;1 -->
<g id="edge1" class="edge">
<title>0&#45;&gt;1</title>
<path fill="none" stroke="black" d="M36.42,-28.93C49.31,-28.93 67.2,-28.93 82.56,-28.93"/>
<polygon fill="black" stroke="black" points="82.69,-32.43 92.69,-28.93 82.69,-25.43 82.69,-32.43"/>
<text text-anchor="start" x="51.5" y="-39.73" font-family="Times,serif" font-size="14.00">a/</text>
<text text-anchor="start" x="61.5" y="-39.73" font-family="Times,serif" font-style="italic" font-size="14.00">A</text>
<text text-anchor="start" x="70.5" y="-39.73" font-family="Times,serif" font-style="italic" baseline-shift="sub" font-size="14.00">1</text>
</g>
<!-- 0&#45;&gt;1 -->
<g id="edge2" class="edge">
<title>0&#45;&gt;1</title>
<path fill="none" stroke="black" d="M30.81,-16.05C36.38,-10.92 43.44,-5.61 51,-2.93 62.31,1.08 66.58,0.76 78,-2.93 82.13,-4.26 86.18,-6.27 89.99,-8.58"/>
<polygon fill="black" stroke="black" points="88.15,-11.56 98.36,-14.38 92.13,-5.81 88.15,-11.56"/>
<text text-anchor="start" x="51" y="-13.73" font-family="Times,serif" font-size="14.00">b/</text>
<text text-anchor="start" x="62" y="-13.73" font-family="Times,serif" font-style="italic" font-size="14.00">A</text>
<text text-anchor="start" x="71" y="-13.73" font-family="Times,serif" font-style="italic" baseline-shift="sub" font-size="14.00">2</text>
</g>
</g>
</svg>
