<?xml version="1.0" encoding="UTF-8" standalone="no"?>
<!DOCTYPE svg PUBLIC "-//W3C//DTD SVG 1.1//EN"
 "http://www.w3.org/Graphics/SVG/1.1/DTD/svg11.dtd">
<!-- Generated by graphviz version 2.47.3 (20210619.1520)
 -->
<!-- Title: FST Pages: 1 -->
<svg width="349pt" height="80pt"
 viewBox="0.00 0.00 349.00 80.19" xmlns="http://www.w3.org/2000/svg" xmlns:xlink="http://www.w3.org/1999/xlink">
<g id="graph0" class="graph" transform="scale(1 1) rotate(0) translate(4 76.19)">
<title>FST</title>
<polygon fill="white" stroke="transparent" points="-4,4 -4,-70.19 345,-70.19 345,4 -4,4"/>
<!-- 0 -->
<g id="node1" class="node">
<title>0</title>
<ellipse fill="none" stroke="black" stroke-width="2" cx="18" cy="-34.19" rx="18" ry="18"/>
<text text-anchor="middle" x="18" y="-30.49" font-family="Times,serif" font-size="14.00">0</text>
</g>
<!-- 1 -->
<g id="node2" class="node">
<title>1</title>
<ellipse fill="none" stroke="black" cx="117" cy="-34.19" rx="18" ry="18"/>
<text text-anchor="middle" x="117" y="-30.49" font-family="Times,serif" font-size="14.00">1</text>
</g>
<!-- 0&#45;&gt;1 -->
<g id="edge1" class="edge">
<title>0&#45;&gt;1</title>
<path fill="none" stroke="black" d="M34.18,-42.85C40.16,-45.79 47.21,-48.71 54,-50.19 65.73,-52.74 69.27,-52.74 81,-50.19 84.5,-49.43 88.07,-48.28 91.53,-46.95"/>
<polygon fill="black" stroke="black" points="93.08,-50.09 100.82,-42.85 90.25,-43.69 93.08,-50.09"/>
<text text-anchor="start" x="54.5" y="-60.99" font-family="Times,serif" font-size="14.00">a/</text>
<text text-anchor="start" x="64.5" y="-60.99" font-family="Times,serif" font-style="italic" font-size="14.00">B</text>
<text text-anchor="start" x="73.5" y="-60.99" font-family="Times,serif" font-style="italic" baseline-shift="sub" font-size="14.00">1</text>
</g>
<!-- 0&#45;&gt;1 -->
<g id="edge2" class="edge">
<title>0&#45;&gt;1</title>
<path fill="none" stroke="black" d="M36.04,-31.26C41.73,-30.42 48.12,-29.61 54,-29.19 65.97,-28.34 69.03,-28.34 81,-29.19 83.57,-29.37 86.24,-29.63 88.91,-29.93"/>
<polygon fill="black" stroke="black" points="88.59,-33.42 98.96,-31.26 89.51,-26.48 88.59,-33.42"/>
<text text-anchor="start" x="54" y="-38.99" font-family="Times,serif" font-size="14.00">b/</text>
<text text-anchor="start" x="65" y="-38.99" font-family="Times,serif" font-style="italic" font-size="14.00">B</text>
<text text-anchor="start" x="74" y="-38.99" font-family="Times,serif" font-style="italic" baseline-shift="sub" font-size="14.00">2</text>
</g>
<!-- 0&#45;&gt;1 -->
<g id="edge3" class="edge">
<title>0&#45;&gt;1</title>
<path fill="none" stroke="black" d="M30.12,-20.49C36.36,-13.91 44.74,-6.7 54,-3.19 65.22,1.06 69.78,1.06 81,-3.19 86.93,-5.44 92.5,-9.21 97.38,-13.35"/>
<polygon fill="black" stroke="black" points="95.22,-16.13 104.88,-20.49 100.05,-11.06 95.22,-16.13"/>
<text text-anchor="start" x="54.5" y="-12.99" font-family="Times,serif" font-size="14.00">c/</text>
<text text-anchor="start" x="64.5" y="-12.99" font-family="Times,serif" font-style="italic" font-size="14.00">B</text>
<text text-anchor="start" x="73.5" y="-12.99" font-family="Times,serif" font-style="italic" baseline-shift="sub" font-size="14.00">3</text>
</g>
<!-- 2 -->
<g id="node3" class="node">
<title>2</title>
<ellipse fill="none" stroke="black" cx="216" cy="-34.19" rx="18" ry="18"/>
<text text-anchor="middle" x="216" y="-30.49" font-family="Times,serif" font-size="14.00">2</text>
</g>
<!-- 1&#45;&gt;2 -->
<g id="edge4" class="edge">
<title>1&#45;&gt;2</title>
<path fill="none" stroke="black" d="M133.18,-42.85C139.16,-45.79 146.21,-48.71 153,-50.19 164.73,-52.74 168.27,-52.74 180,-50.19 183.5,-49.43 187.07,-48.28 190.53,-46.95"/>
<polygon fill="black" stroke="black" points="192.08,-50.09 199.82,-42.85 189.25,-43.69 192.08,-50.09"/>
<text text-anchor="start" x="153.5" y="-60.99" font-family="Times,serif" font-size="14.00">a/</text>
<text text-anchor="start" x="163.5" y="-60.99" font-family="Times,serif" font-style="italic" font-size="14.00">B</text>
<text text-anchor="start" x="172.5" y="-60.99" font-family="Times,serif" font-style="italic" baseline-shift="sub" font-size="14.00">4</text>
</g>
<!-- 1&#45;&gt;2 -->
<g id="edge5" class="edge">
<title>1&#45;&gt;2</title>
<path fill="none" stroke="black" d="M135.04,-31.26C140.73,-30.42 147.12,-29.61 153,-29.19 164.97,-28.34 168.03,-28.34 180,-29.19 182.57,-29.37 185.24,-29.63 187.91,-29.93"/>
<polygon fill="black" stroke="black" points="187.59,-33.42 197.96,-31.26 188.51,-26.48 187.59,-33.42"/>
<text text-anchor="start" x="153" y="-38.99" font-family="Times,serif" font-size="14.00">b/</text>
<text text-anchor="start" x="164" y="-38.99" font-family="Times,serif" font-style="italic" font-size="14.00">B</text>
<text text-anchor="start" x="173" y="-38.99" font-family="Times,serif" font-style="italic" baseline-shift="sub" font-size="14.00">5</text>
</g>
<!-- 1&#45;&gt;2 -->
<g id="edge6" class="edge">
<title>1&#45;&gt;2</title>
<path fill="none" stroke="black" d="M129.12,-20.49C135.36,-13.91 143.74,-6.7 153,-3.19 164.22,1.06 168.78,1.06 180,-3.19 185.93,-5.44 191.5,-9.21 196.38,-13.35"/>
<polygon fill="black" stroke="black" points="194.22,-16.13 203.88,-20.49 199.05,-11.06 194.22,-16.13"/>
<text text-anchor="start" x="153.5" y="-12.99" font-family="Times,serif" font-size="14.00">c/</text>
<text text-anchor="start" x="163.5" y="-12.99" font-family="Times,serif" font-style="italic" font-size="14.00">B</text>
<text text-anchor="start" x="172.5" y="-12.99" font-family="Times,serif" font-style="italic" baseline-shift="sub" font-size="14.00">6</text>
</g>
<!-- 3 -->
<g id="node4" class="node">
<title>3</title>
<ellipse fill="none" stroke="black" cx="319" cy="-34.19" rx="18" ry="18"/>
<ellipse fill="none" stroke="black" cx="319" cy="-34.19" rx="22" ry="22"/>
<text text-anchor="middle" x="319" y="-30.49" font-family="Times,serif" font-size="14.00">3</text>
</g>
<!-- 2&#45;&gt;3 -->
<g id="edge7" class="edge">
<title>2&#45;&gt;3</title>
<path fill="none" stroke="black" d="M232.18,-42.85C238.16,-45.79 245.21,-48.71 252,-50.19 263.73,-52.74 267.23,-52.51 279,-50.19 282.48,-49.5 286.04,-48.5 289.53,-47.33"/>
<polygon fill="black" stroke="black" points="290.93,-50.54 299.02,-43.7 288.43,-44.01 290.93,-50.54"/>
<text text-anchor="start" x="252.5" y="-60.99" font-family="Times,serif" font-size="14.00">a/</text>
<text text-anchor="start" x="262.5" y="-60.99" font-family="Times,serif" font-style="italic" font-size="14.00">B</text>
<text text-anchor="start" x="271.5" y="-60.99" font-family="Times,serif" font-style="italic" baseline-shift="sub" font-size="14.00">7</text>
</g>
<!-- 2&#45;&gt;3 -->
<g id="edge8" class="edge">
<title>2&#45;&gt;3</title>
<path fill="none" stroke="black" d="M234.04,-31.26C239.73,-30.42 246.12,-29.61 252,-29.19 263.97,-28.34 267.02,-28.43 279,-29.19 281.56,-29.35 284.22,-29.58 286.87,-29.84"/>
<polygon fill="black" stroke="black" points="286.66,-33.34 297,-31 287.46,-26.38 286.66,-33.34"/>
<text text-anchor="start" x="252" y="-38.99" font-family="Times,serif" font-size="14.00">b/</text>
<text text-anchor="start" x="263" y="-38.99" font-family="Times,serif" font-style="italic" font-size="14.00">B</text>
<text text-anchor="start" x="272" y="-38.99" font-family="Times,serif" font-style="italic" baseline-shift="sub" font-size="14.00">8</text>
</g>
<!-- 2&#45;&gt;3 -->
<g id="edge9" class="edge">
<title>2&#45;&gt;3</title>
<path fill="none" stroke="black" d="M228.12,-20.49C234.36,-13.91 242.74,-6.7 252,-3.19 263.22,1.06 267.67,0.76 279,-3.19 284.75,-5.2 290.3,-8.45 295.31,-12.11"/>
<polygon fill="black" stroke="black" points="293.21,-14.92 303.18,-18.5 297.62,-9.48 293.21,-14.92"/>
<text text-anchor="start" x="252.5" y="-12.99" font-family="Times,serif" font-size="14.00">c/</text>
<text text-anchor="start" x="262.5" y="-12.99" font-family="Times,serif" font-style="italic" font-size="14.00">B</text>
<text text-anchor="start" x="271.5" y="-12.99" font-family="Times,serif" font-style="italic" baseline-shift="sub" font-size="14.00">9</text>
</g>
</g>
</svg>
