<?xml version="1.0" encoding="UTF-8" standalone="no"?>
<!DOCTYPE svg PUBLIC "-//W3C//DTD SVG 1.1//EN"
 "http://www.w3.org/Graphics/SVG/1.1/DTD/svg11.dtd">
<!-- Generated by graphviz version 2.47.3 (20210619.1520)
 -->
<!-- Title: FST Pages: 1 -->
<svg width="145pt" height="90pt"
 viewBox="0.00 0.00 145.00 90.00" xmlns="http://www.w3.org/2000/svg" xmlns:xlink="http://www.w3.org/1999/xlink">
<g id="graph0" class="graph" transform="scale(1 1) rotate(0) translate(4 86)">
<title>FST</title>
<polygon fill="white" stroke="transparent" points="-4,4 -4,-81 141,-81 141,4 -4,4"/>
<!-- 0 -->
<g id="node1" class="node">
<title>0</title>
<ellipse fill="none" stroke="black" stroke-width="2" cx="18" cy="-22" rx="18" ry="18"/>
<text text-anchor="middle" x="18" y="-18.3" font-family="Times,serif" font-size="14.00">0</text>
</g>
<!-- 0&#45;&gt;0 -->
<g id="edge1" class="edge">
<title>0&#45;&gt;0</title>
<path fill="none" stroke="black" d="M9.98,-38.29C8.05,-48.39 10.72,-58 18,-58 22.66,-58 25.43,-54.06 26.32,-48.57"/>
<polygon fill="black" stroke="black" points="29.81,-48.18 26.02,-38.29 22.81,-48.39 29.81,-48.18"/>
<text text-anchor="start" x="5" y="-66.8" font-family="Times,serif" font-size="14.00">a/</text>
<text text-anchor="start" x="15" y="-66.8" font-family="Times,serif" font-style="italic" font-size="14.00">A</text>
<text text-anchor="start" x="24" y="-66.8" font-family="Times,serif" font-style="italic" baseline-shift="sub" font-size="14.00">1</text>
</g>
<!-- 1 -->
<g id="node2" class="node">
<title>1</title>
<ellipse fill="none" stroke="black" cx="115" cy="-22" rx="18" ry="18"/>
<ellipse fill="none" stroke="black" cx="115" cy="-22" rx="22" ry="22"/>
<text text-anchor="middle" x="115" y="-18.3" font-family="Times,serif" font-size="14.00">1</text>
</g>
<!-- 0&#45;&gt;1 -->
<g id="edge2" class="edge">
<title>0&#45;&gt;1</title>
<path fill="none" stroke="black" d="M36.42,-22C49.31,-22 67.2,-22 82.56,-22"/>
<polygon fill="black" stroke="black" points="82.69,-25.5 92.69,-22 82.69,-18.5 82.69,-25.5"/>
<text text-anchor="start" x="51" y="-31.8" font-family="Times,serif" font-size="14.00">b/</text>
<text text-anchor="start" x="62" y="-31.8" font-family="Times,serif" font-style="italic" font-size="14.00">A</text>
<text text-anchor="start" x="71" y="-31.8" font-family="Times,serif" font-style="italic" baseline-shift="sub" font-size="14.00">2</text>
</g>
<!-- 1&#45;&gt;1 -->
<g id="edge3" class="edge">
<title>1&#45;&gt;1</title>
<path fill="none" stroke="black" d="M105.95,-42.17C104.56,-52.6 107.58,-62 115,-62 119.87,-62 122.84,-57.95 123.92,-52.22"/>
<polygon fill="black" stroke="black" points="127.42,-52.21 124.05,-42.17 120.42,-52.12 127.42,-52.21"/>
<text text-anchor="start" x="102" y="-71.8" font-family="Times,serif" font-size="14.00">c/</text>
<text text-anchor="start" x="112" y="-71.8" font-family="Times,serif" font-style="italic" font-size="14.00">A</text>
<text text-anchor="start" x="121" y="-71.8" font-family="Times,serif" font-style="italic" baseline-shift="sub" font-size="14.00">3</text>
</g>
</g>
</svg>
