<?xml version="1.0" encoding="UTF-8" standalone="no"?>
<!DOCTYPE svg PUBLIC "-//W3C//DTD SVG 1.1//EN"
 "http://www.w3.org/Graphics/SVG/1.1/DTD/svg11.dtd">
<!-- Generated by graphviz version 2.47.3 (20210619.1520)
 -->
<!-- Title: FST Pages: 1 -->
<svg width="342pt" height="120pt"
 viewBox="0.00 0.00 342.00 120.00" xmlns="http://www.w3.org/2000/svg" xmlns:xlink="http://www.w3.org/1999/xlink">
<g id="graph0" class="graph" transform="scale(1 1) rotate(0) translate(4 116)">
<title>FST</title>
<polygon fill="white" stroke="transparent" points="-4,4 -4,-116 338,-116 338,4 -4,4"/>
<!-- 0 -->
<g id="node1" class="node">
<title>0</title>
<ellipse fill="none" stroke="black" stroke-width="2" cx="18" cy="-45" rx="18" ry="18"/>
<text text-anchor="middle" x="18" y="-41.3" font-family="Times,serif" font-size="14.00">(0, 0)</text>
</g>
<!-- 1 -->
<g id="node2" class="node">
<title>1</title>
<ellipse fill="none" stroke="black" cx="112" cy="-72" rx="18" ry="18"/>
<text text-anchor="middle" x="112" y="-68.3" font-family="Times,serif" font-size="14.00">(0, 1)</text>
</g>
<!-- 0&#45;&gt;1 -->
<g id="edge1" class="edge">
<title>0&#45;&gt;1</title>
<path fill="none" stroke="black" d="M35.45,-49.83C49.1,-53.83 68.77,-59.61 84.62,-64.26"/>
<polygon fill="black" stroke="black" points="83.8,-67.67 94.38,-67.12 85.77,-60.95 83.8,-67.67"/>
<text text-anchor="start" x="51.5" y="-71.8" font-family="Times,serif" font-size="14.00">a/</text>
<text text-anchor="start" x="61.5" y="-71.8" font-family="Times,serif" font-style="italic" font-size="14.00">w</text>
<text text-anchor="start" x="71.5" y="-71.8" font-family="Times,serif" font-style="italic" baseline-shift="sub" font-size="14.00">1</text>
</g>
<!-- 2 -->
<g id="node3" class="node">
<title>2</title>
<ellipse fill="none" stroke="black" cx="112" cy="-18" rx="18" ry="18"/>
<text text-anchor="middle" x="112" y="-14.3" font-family="Times,serif" font-size="14.00">(1, 1)</text>
</g>
<!-- 0&#45;&gt;2 -->
<g id="edge2" class="edge">
<title>0&#45;&gt;2</title>
<path fill="none" stroke="black" d="M35.25,-39.83C40.29,-38.25 45.87,-36.53 51,-35 61.97,-31.73 74.12,-28.26 84.6,-25.32"/>
<polygon fill="black" stroke="black" points="85.72,-28.64 94.41,-22.57 83.84,-21.89 85.72,-28.64"/>
<text text-anchor="start" x="51" y="-39.8" font-family="Times,serif" font-size="14.00">b/</text>
<text text-anchor="start" x="62" y="-39.8" font-family="Times,serif" font-style="italic" font-size="14.00">w</text>
<text text-anchor="start" x="72" y="-39.8" font-family="Times,serif" font-style="italic" baseline-shift="sub" font-size="14.00">2</text>
</g>
<!-- 3 -->
<g id="node4" class="node">
<title>3</title>
<ellipse fill="none" stroke="black" cx="206" cy="-94" rx="18" ry="18"/>
<text text-anchor="middle" x="206" y="-90.3" font-family="Times,serif" font-size="14.00">(0, 2)</text>
</g>
<!-- 1&#45;&gt;3 -->
<g id="edge3" class="edge">
<title>1&#45;&gt;3</title>
<path fill="none" stroke="black" d="M129.87,-76.04C143.36,-79.26 162.52,-83.84 178.12,-87.57"/>
<polygon fill="black" stroke="black" points="177.69,-91.07 188.23,-89.99 179.32,-84.26 177.69,-91.07"/>
<text text-anchor="start" x="145.5" y="-95.8" font-family="Times,serif" font-size="14.00">a/</text>
<text text-anchor="start" x="155.5" y="-95.8" font-family="Times,serif" font-style="italic" font-size="14.00">w</text>
<text text-anchor="start" x="165.5" y="-95.8" font-family="Times,serif" font-style="italic" baseline-shift="sub" font-size="14.00">3</text>
</g>
<!-- 4 -->
<g id="node5" class="node">
<title>4</title>
<ellipse fill="none" stroke="black" cx="206" cy="-40" rx="18" ry="18"/>
<text text-anchor="middle" x="206" y="-36.3" font-family="Times,serif" font-size="14.00">(1, 2)</text>
</g>
<!-- 1&#45;&gt;4 -->
<g id="edge4" class="edge">
<title>1&#45;&gt;4</title>
<path fill="none" stroke="black" d="M129.24,-65.78C134.27,-63.88 139.85,-61.82 145,-60 156.14,-56.06 168.51,-51.89 179.12,-48.39"/>
<polygon fill="black" stroke="black" points="180.23,-51.71 188.65,-45.27 178.05,-45.06 180.23,-51.71"/>
<text text-anchor="start" x="145" y="-64.8" font-family="Times,serif" font-size="14.00">b/</text>
<text text-anchor="start" x="156" y="-64.8" font-family="Times,serif" font-style="italic" font-size="14.00">w</text>
<text text-anchor="start" x="166" y="-64.8" font-family="Times,serif" font-style="italic" baseline-shift="sub" font-size="14.00">4</text>
</g>
<!-- 2&#45;&gt;4 -->
<g id="edge5" class="edge">
<title>2&#45;&gt;4</title>
<path fill="none" stroke="black" d="M129.95,-15.81C142.19,-14.81 158.96,-14.68 173,-19 176.41,-20.05 179.79,-21.58 183.01,-23.34"/>
<polygon fill="black" stroke="black" points="181.21,-26.35 191.54,-28.73 184.95,-20.43 181.21,-26.35"/>
<text text-anchor="start" x="145.5" y="-28.8" font-family="Times,serif" font-size="14.00">c/</text>
<text text-anchor="start" x="155.5" y="-28.8" font-family="Times,serif" font-style="italic" font-size="14.00">w</text>
<text text-anchor="start" x="165.5" y="-28.8" font-family="Times,serif" font-style="italic" baseline-shift="sub" font-size="14.00">5</text>
</g>
<!-- 5 -->
<g id="node6" class="node">
<title>5</title>
<ellipse fill="none" stroke="black" cx="308" cy="-67" rx="22" ry="22"/>
<ellipse fill="none" stroke="black" cx="308" cy="-67" rx="26" ry="26"/>
<text text-anchor="middle" x="308" y="-63.3" font-family="Times,serif" font-size="14.00">(1, 3)</text>
</g>
<!-- 3&#45;&gt;5 -->
<g id="edge6" class="edge">
<title>3&#45;&gt;5</title>
<path fill="none" stroke="black" d="M223.51,-89.54C236.84,-85.94 256.03,-80.76 272.65,-76.27"/>
<polygon fill="black" stroke="black" points="273.86,-79.57 282.6,-73.59 272.03,-72.82 273.86,-79.57"/>
<text text-anchor="start" x="239" y="-89.8" font-family="Times,serif" font-size="14.00">b/</text>
<text text-anchor="start" x="250" y="-89.8" font-family="Times,serif" font-style="italic" font-size="14.00">w</text>
<text text-anchor="start" x="260" y="-89.8" font-family="Times,serif" font-style="italic" baseline-shift="sub" font-size="14.00">6</text>
</g>
<!-- 4&#45;&gt;5 -->
<g id="edge7" class="edge">
<title>4&#45;&gt;5</title>
<path fill="none" stroke="black" d="M223.51,-44.46C236.84,-48.06 256.03,-53.24 272.65,-57.73"/>
<polygon fill="black" stroke="black" points="272.03,-61.18 282.6,-60.41 273.86,-54.43 272.03,-61.18"/>
<text text-anchor="start" x="239.5" y="-64.8" font-family="Times,serif" font-size="14.00">c/</text>
<text text-anchor="start" x="249.5" y="-64.8" font-family="Times,serif" font-style="italic" font-size="14.00">w</text>
<text text-anchor="start" x="259.5" y="-64.8" font-family="Times,serif" font-style="italic" baseline-shift="sub" font-size="14.00">7</text>
</g>
</g>
</svg>
